%TF.GenerationSoftware,KiCad,Pcbnew,9.0.6*%
%TF.CreationDate,2026-06-10T23:29:41-07:00*%
%TF.ProjectId,extrava,65787472-6176-4612-9e6b-696361645f70,1*%
%TF.SameCoordinates,Original*%
%TF.FileFunction,Copper,L1,Top*%
%TF.FilePolarity,Positive*%
%FSLAX46Y46*%
G04 Gerber Fmt 4.6, Leading zero omitted, Abs format (unit mm)*
G04 Created by KiCad (PCBNEW 9.0.6) date 2026-06-10 23:29:41*
%MOMM*%
%LPD*%
G01*
G04 APERTURE LIST*
G04 Aperture macros list*
%AMRoundRect*
0 Rectangle with rounded corners*
0 $1 Rounding radius*
0 $2 $3 $4 $5 $6 $7 $8 $9 X,Y pos of 4 corners*
0 Add a 4 corners polygon primitive as box body*
4,1,4,$2,$3,$4,$5,$6,$7,$8,$9,$2,$3,0*
0 Add four circle primitives for the rounded corners*
1,1,$1+$1,$2,$3*
1,1,$1+$1,$4,$5*
1,1,$1+$1,$6,$7*
1,1,$1+$1,$8,$9*
0 Add four rect primitives between the rounded corners*
20,1,$1+$1,$2,$3,$4,$5,0*
20,1,$1+$1,$4,$5,$6,$7,0*
20,1,$1+$1,$6,$7,$8,$9,0*
20,1,$1+$1,$8,$9,$2,$3,0*%
G04 Aperture macros list end*
%TA.AperFunction,ComponentPad*%
%ADD10RoundRect,0.250002X-1.499998X1.499998X-1.499998X-1.499998X1.499998X-1.499998X1.499998X1.499998X0*%
%TD*%
%TA.AperFunction,SMDPad,CuDef*%
%ADD11RoundRect,0.237500X0.300000X0.237500X-0.300000X0.237500X-0.300000X-0.237500X0.300000X-0.237500X0*%
%TD*%
%TA.AperFunction,SMDPad,CuDef*%
%ADD12RoundRect,0.237500X-0.300000X-0.237500X0.300000X-0.237500X0.300000X0.237500X-0.300000X0.237500X0*%
%TD*%
%TA.AperFunction,SMDPad,CuDef*%
%ADD13RoundRect,0.237500X-0.237500X0.300000X-0.237500X-0.300000X0.237500X-0.300000X0.237500X0.300000X0*%
%TD*%
%TA.AperFunction,ComponentPad*%
%ADD14R,1.358000X1.358000*%
%TD*%
%TA.AperFunction,ComponentPad*%
%ADD15C,1.358000*%
%TD*%
%TA.AperFunction,SMDPad,CuDef*%
%ADD16RoundRect,0.032500X-0.097500X-0.387500X0.097500X-0.387500X0.097500X0.387500X-0.097500X0.387500X0*%
%TD*%
%TA.AperFunction,SMDPad,CuDef*%
%ADD17RoundRect,0.032500X-0.387500X-0.097500X0.387500X-0.097500X0.387500X0.097500X-0.387500X0.097500X0*%
%TD*%
%TA.AperFunction,SMDPad,CuDef*%
%ADD18R,5.100000X5.100000*%
%TD*%
%TA.AperFunction,SMDPad,CuDef*%
%ADD19R,1.300000X1.050000*%
%TD*%
%TA.AperFunction,SMDPad,CuDef*%
%ADD20RoundRect,0.237500X0.237500X-0.250000X0.237500X0.250000X-0.237500X0.250000X-0.237500X-0.250000X0*%
%TD*%
%TA.AperFunction,SMDPad,CuDef*%
%ADD21RoundRect,0.237500X-0.250000X-0.237500X0.250000X-0.237500X0.250000X0.237500X-0.250000X0.237500X0*%
%TD*%
%TA.AperFunction,SMDPad,CuDef*%
%ADD22RoundRect,0.237500X0.237500X-0.300000X0.237500X0.300000X-0.237500X0.300000X-0.237500X-0.300000X0*%
%TD*%
%TA.AperFunction,ViaPad*%
%ADD23C,0.600000*%
%TD*%
%TA.AperFunction,Conductor*%
%ADD24C,0.300000*%
%TD*%
%TA.AperFunction,Conductor*%
%ADD25C,0.200000*%
%TD*%
G04 APERTURE END LIST*
D10*
%TO.P,J1,1,Pin_1*%
%TO.N,CURR+*%
X111750000Y-75250000D03*
%TD*%
%TO.P,J2,1,Pin_1*%
%TO.N,VOLT+*%
X111750000Y-80250000D03*
%TD*%
%TO.P,J3,1,Pin_1*%
%TO.N,CURR-*%
X111750000Y-65250000D03*
%TD*%
%TO.P,J4,1,Pin_1*%
%TO.N,VOLT-*%
X111750000Y-70250000D03*
%TD*%
D11*
%TO.P,C13,2*%
%TO.N,VBIAS_CAP*%
X108387500Y-49250000D03*
%TO.P,C13,1*%
%TO.N,GND*%
X110112500Y-49250000D03*
%TD*%
D12*
%TO.P,C12,1*%
%TO.N,GND*%
X94387500Y-49250000D03*
%TO.P,C12,2*%
%TO.N,VREF_2V5*%
X96112500Y-49250000D03*
%TD*%
%TO.P,C9,2*%
%TO.N,AVDD_REG*%
X96112500Y-51750000D03*
%TO.P,C9,1*%
%TO.N,GND*%
X94387500Y-51750000D03*
%TD*%
D13*
%TO.P,C4,1*%
%TO.N,+3.3V*%
X91750000Y-53750000D03*
%TO.P,C4,2*%
%TO.N,GND*%
X91750000Y-55475000D03*
%TD*%
%TO.P,C3,1*%
%TO.N,+3.3V*%
X94750000Y-53750000D03*
%TO.P,C3,2*%
%TO.N,GND*%
X94750000Y-55475000D03*
%TD*%
D14*
%TO.P,U1,1,D0*%
%TO.N,unconnected-(U1-D0-Pad1)*%
X87050000Y-80990000D03*
D15*
%TO.P,U1,2,D1*%
%TO.N,INT*%
X89590000Y-80990000D03*
%TO.P,U1,3,D2*%
%TO.N,unconnected-(U1-D2-Pad3)*%
X92130000Y-80990000D03*
%TO.P,U1,7,TX_D6*%
%TO.N,unconnected-(U1-TX_D6-Pad7)*%
X102290000Y-80990000D03*
%TO.P,U1,6,D5*%
%TO.N,unconnected-(U1-D5-Pad6)*%
X99750000Y-80990000D03*
%TO.P,U1,5,D4*%
%TO.N,unconnected-(U1-D4-Pad5)*%
X97210000Y-80990000D03*
%TO.P,U1,4,D3*%
%TO.N,unconnected-(U1-D3-Pad4)*%
X94670000Y-80990000D03*
%TO.P,U1,14,VUSB*%
%TO.N,unconnected-(U1-VUSB-Pad14)*%
X87050000Y-65750000D03*
%TO.P,U1,13,GND*%
%TO.N,GND*%
X89590000Y-65750000D03*
%TO.P,U1,12,VCC_3V3*%
%TO.N,+3.3V*%
X92130000Y-65750000D03*
%TO.P,U1,8,RX_D7*%
%TO.N,CS*%
X102290000Y-65750000D03*
%TO.P,U1,9,D8*%
%TO.N,SCK*%
X99750000Y-65750000D03*
%TO.P,U1,10,D9*%
%TO.N,MISO*%
X97210000Y-65750000D03*
%TO.P,U1,11,D10*%
%TO.N,MOSI*%
X94670000Y-65750000D03*
%TD*%
D16*
%TO.P,U2,13,DGND*%
%TO.N,GND*%
X100000000Y-56195000D03*
%TO.P,U2,14,DVDD_REG_1V8*%
%TO.N,DVDD_REG_1V8*%
X100500000Y-56195000D03*
%TO.P,U2,15,~{CS}*%
%TO.N,CS*%
X101000000Y-56195000D03*
%TO.P,U2,16,SCLK*%
%TO.N,SCK*%
X101500000Y-56195000D03*
%TO.P,U2,17,MOSI*%
%TO.N,MOSI*%
X102000000Y-56195000D03*
%TO.P,U2,18,MISO*%
%TO.N,MISO*%
X102500000Y-56195000D03*
%TO.P,U2,19,GPIO0*%
%TO.N,INT*%
X103000000Y-56195000D03*
%TO.P,U2,20,GPIO1*%
%TO.N,unconnected-(U2-GPIO1-Pad20)*%
X103500000Y-56195000D03*
%TO.P,U2,21,GPIO2*%
%TO.N,unconnected-(U2-GPIO2-Pad21)*%
X104000000Y-56195000D03*
%TO.P,U2,22,~{RESET}*%
%TO.N,Net-(U2-~{RESET})*%
X104500000Y-56195000D03*
%TO.P,U2,23,DGND*%
%TO.N,GND*%
X105000000Y-56195000D03*
%TO.P,U2,24,DNC*%
%TO.N,unconnected-(U2-DNC-Pad24)*%
X105500000Y-56195000D03*
%TO.P,U2,37,AIN2*%
%TO.N,unconnected-(U2-AIN2-Pad37)*%
X105500000Y-49305000D03*
%TO.P,U2,38,AIN1*%
%TO.N,unconnected-(U2-AIN1-Pad38)*%
X105000000Y-49305000D03*
%TO.P,U2,39,AIN0*%
%TO.N,unconnected-(U2-AIN0-Pad39)*%
X104500000Y-49305000D03*
%TO.P,U2,40,AIN4/LPF0*%
%TO.N,unconnected-(U2-AIN4{slash}LPF0-Pad40)*%
X104000000Y-49305000D03*
%TO.P,U2,41,AVDD*%
%TO.N,AVDD*%
X103500000Y-49305000D03*
%TO.P,U2,42,AGND*%
%TO.N,GND*%
X103000000Y-49305000D03*
%TO.P,U2,43,VREF_1V8*%
%TO.N,VREF_1V8*%
X102500000Y-49305000D03*
%TO.P,U2,44,AGND_REF*%
%TO.N,GND*%
X102000000Y-49305000D03*
%TO.P,U2,45,SE0*%
%TO.N,CURR-*%
X101500000Y-49305000D03*
%TO.P,U2,46,DE0*%
%TO.N,VOLT-*%
X101000000Y-49305000D03*
%TO.P,U2,47,CE0*%
%TO.N,CURR+*%
X100500000Y-49305000D03*
%TO.P,U2,48,RE0*%
%TO.N,VOLT+*%
X100000000Y-49305000D03*
D17*
%TO.P,U2,1,RC0_2*%
%TO.N,unconnected-(U2-RC0_2-Pad1)*%
X99305000Y-50000000D03*
%TO.P,U2,2,RC0_1*%
%TO.N,unconnected-(U2-RC0_1-Pad2)*%
X99305000Y-50500000D03*
%TO.P,U2,3,RC0_0*%
%TO.N,unconnected-(U2-RC0_0-Pad3)*%
X99305000Y-51000000D03*
%TO.P,U2,4,VREF_2V5*%
%TO.N,VREF_2V5*%
X99305000Y-51500000D03*
%TO.P,U2,5,AVDD_REG*%
%TO.N,AVDD_REG*%
X99305000Y-52000000D03*
%TO.P,U2,6,DVDD*%
%TO.N,+3.3V*%
X99305000Y-52500000D03*
%TO.P,U2,7,DNC*%
%TO.N,unconnected-(U2-DNC-Pad7)*%
X99305000Y-53000000D03*
%TO.P,U2,8,VBIAS0*%
%TO.N,Net-(U2-VBIAS0)*%
X99305000Y-53500000D03*
%TO.P,U2,9,VZERO0*%
%TO.N,Net-(U2-VZERO0)*%
X99305000Y-54000000D03*
%TO.P,U2,10,DNC*%
%TO.N,unconnected-(U2-DNC-Pad10)*%
X99305000Y-54500000D03*
%TO.P,U2,11,XTALI*%
%TO.N,OSC_OUT*%
X99305000Y-55000000D03*
%TO.P,U2,12,XTALO*%
%TO.N,OSC_IN*%
X99305000Y-55500000D03*
%TO.P,U2,25,DGND*%
%TO.N,GND*%
X106195000Y-55500000D03*
%TO.P,U2,26,IOVDD*%
%TO.N,+3.3V*%
X106195000Y-55000000D03*
%TO.P,U2,27,AFE3*%
%TO.N,unconnected-(U2-AFE3-Pad27)*%
X106195000Y-54500000D03*
%TO.P,U2,28,AFE4*%
%TO.N,unconnected-(U2-AFE4-Pad28)*%
X106195000Y-54000000D03*
%TO.P,U2,29,AGND*%
%TO.N,GND*%
X106195000Y-53500000D03*
%TO.P,U2,30,AVDD*%
%TO.N,AVDD*%
X106195000Y-53000000D03*
%TO.P,U2,31,VBIAS_CAP*%
%TO.N,VBIAS_CAP*%
X106195000Y-52500000D03*
%TO.P,U2,32,RCAL0*%
%TO.N,unconnected-(U2-RCAL0-Pad32)*%
X106195000Y-52000000D03*
%TO.P,U2,33,RCAL1*%
%TO.N,unconnected-(U2-RCAL1-Pad33)*%
X106195000Y-51500000D03*
%TO.P,U2,34,AFE1*%
%TO.N,unconnected-(U2-AFE1-Pad34)*%
X106195000Y-51000000D03*
%TO.P,U2,35,AFE2*%
%TO.N,unconnected-(U2-AFE2-Pad35)*%
X106195000Y-50500000D03*
%TO.P,U2,36,AIN3/BUF_VREF1V8*%
%TO.N,unconnected-(U2-AIN3{slash}BUF_VREF1V8-Pad36)*%
X106195000Y-50000000D03*
D18*
%TO.P,U2,49,EXP*%
%TO.N,unconnected-(U2-EXP-Pad49)*%
X102750000Y-52750000D03*
%TD*%
D19*
%TO.P,Y1,1*%
%TO.N,OSC_IN*%
X88000000Y-56000000D03*
%TO.P,Y1,2,GND*%
%TO.N,GND*%
X85700000Y-56000000D03*
%TO.P,Y1,3*%
%TO.N,OSC_OUT*%
X85700000Y-57750000D03*
%TO.P,Y1,4,GND*%
%TO.N,GND*%
X88000000Y-57750000D03*
%TD*%
D20*
%TO.P,R1,1*%
%TO.N,+3.3V*%
X104250000Y-60075000D03*
%TO.P,R1,2*%
%TO.N,Net-(U2-~{RESET})*%
X104250000Y-58250000D03*
%TD*%
D21*
%TO.P,FB1,1*%
%TO.N,AVDD*%
X115250000Y-52750000D03*
%TO.P,FB1,2*%
%TO.N,+3.3V*%
X117075000Y-52750000D03*
%TD*%
D12*
%TO.P,C16,1*%
%TO.N,GND*%
X95525000Y-59750000D03*
%TO.P,C16,2*%
%TO.N,Net-(U2-VZERO0)*%
X97250000Y-59750000D03*
%TD*%
%TO.P,C15,1*%
%TO.N,GND*%
X95525000Y-57750000D03*
%TO.P,C15,2*%
%TO.N,Net-(U2-VBIAS0)*%
X97250000Y-57750000D03*
%TD*%
D13*
%TO.P,C11,1*%
%TO.N,GND*%
X102250000Y-45525000D03*
%TO.P,C11,2*%
%TO.N,VREF_1V8*%
X102250000Y-47250000D03*
%TD*%
D22*
%TO.P,C10,1*%
%TO.N,GND*%
X100250000Y-59975000D03*
%TO.P,C10,2*%
%TO.N,DVDD_REG_1V8*%
X100250000Y-58250000D03*
%TD*%
D12*
%TO.P,C8,1*%
%TO.N,OSC_OUT*%
X86387500Y-59750000D03*
%TO.P,C8,2*%
%TO.N,GND*%
X88112500Y-59750000D03*
%TD*%
D11*
%TO.P,C7,1*%
%TO.N,OSC_IN*%
X88112500Y-53750000D03*
%TO.P,C7,2*%
%TO.N,GND*%
X86387500Y-53750000D03*
%TD*%
D13*
%TO.P,C6,1*%
%TO.N,+3.3V*%
X112250000Y-56250000D03*
%TO.P,C6,2*%
%TO.N,GND*%
X112250000Y-57975000D03*
%TD*%
%TO.P,C5,1*%
%TO.N,+3.3V*%
X108750000Y-56250000D03*
%TO.P,C5,2*%
%TO.N,GND*%
X108750000Y-57975000D03*
%TD*%
%TO.P,C2,1*%
%TO.N,AVDD*%
X108750000Y-52750000D03*
%TO.P,C2,2*%
%TO.N,GND*%
X108750000Y-54475000D03*
%TD*%
%TO.P,C1,1*%
%TO.N,AVDD*%
X112250000Y-52750000D03*
%TO.P,C1,2*%
%TO.N,GND*%
X112250000Y-54475000D03*
%TD*%
D23*
%TO.N,GND*%
X94250000Y-47750000D03*
X99250000Y-60750000D03*
X107250000Y-56250000D03*
X105250000Y-57250000D03*
X99750000Y-57250000D03*
X94750000Y-58750000D03*
X103250000Y-47250000D03*
X113750000Y-54750000D03*
X111250000Y-49750000D03*
X95750000Y-56750000D03*
X94250000Y-56750000D03*
X89250000Y-58750000D03*
X91250000Y-56750000D03*
X89750000Y-57750000D03*
X113750000Y-58250000D03*
X85350000Y-54750000D03*
X86250000Y-54750000D03*
X89750000Y-63750000D03*
%TD*%
D24*
%TO.N,+3.3V*%
X90570000Y-81395930D02*
X90570000Y-81124330D01*
X89995930Y-81970000D02*
X90570000Y-81395930D01*
X90570000Y-81124330D02*
X104874000Y-66820330D01*
X88610000Y-81395930D02*
X89184070Y-81970000D01*
X89184070Y-81970000D02*
X89995930Y-81970000D01*
X88610000Y-80584070D02*
X88610000Y-81395930D01*
X90273030Y-80287100D02*
X89995930Y-80010000D01*
X89995930Y-80010000D02*
X89184070Y-80010000D01*
X94899970Y-67933000D02*
X102433000Y-67933000D01*
X93289000Y-66322030D02*
X94899970Y-67933000D01*
X104874000Y-66820330D02*
X104874000Y-64750000D01*
X102433000Y-67933000D02*
X102530065Y-68030065D01*
X89184070Y-80010000D02*
X88610000Y-80584070D01*
X102530065Y-68030065D02*
X90273030Y-80287100D01*
X93289000Y-65750000D02*
X93289000Y-66322030D01*
X92130000Y-65750000D02*
X93289000Y-65750000D01*
D25*
%TO.N,VOLT-*%
X101000000Y-48780358D02*
X101000000Y-49305000D01*
X100552000Y-44948000D02*
X100552000Y-48332358D01*
X101307900Y-44192100D02*
X100552000Y-44948000D01*
X103093100Y-44192100D02*
X101307900Y-44192100D01*
X100552000Y-48332358D02*
X101000000Y-48780358D01*
X103250000Y-44349000D02*
X103093100Y-44192100D01*
X112919500Y-44349000D02*
X103250000Y-44349000D01*
X113085600Y-44182900D02*
X112919500Y-44349000D01*
X113750000Y-44182900D02*
X113085600Y-44182900D01*
X118651000Y-49083900D02*
X113750000Y-44182900D01*
X111750000Y-70250000D02*
X118651000Y-63349000D01*
X118651000Y-63349000D02*
X118651000Y-49083900D01*
%TO.N,GND*%
X101474000Y-46301000D02*
X102250000Y-45525000D01*
X102000000Y-48305634D02*
X101474000Y-47779634D01*
X101474000Y-47779634D02*
X101474000Y-46301000D01*
X102000000Y-49305000D02*
X102000000Y-48305634D01*
%TO.N,CURR-*%
X101500000Y-48713258D02*
X101500000Y-49305000D01*
X100953000Y-48166258D02*
X101500000Y-48713258D01*
X100953000Y-45114100D02*
X100953000Y-48166258D01*
X101317100Y-44750000D02*
X100953000Y-45114100D01*
X101719366Y-44750000D02*
X101317100Y-44750000D01*
X102780634Y-44750000D02*
X102717134Y-44686500D01*
X118250000Y-58750000D02*
X118250000Y-49250000D01*
X118250000Y-49250000D02*
X113750000Y-44750000D01*
X111750000Y-65250000D02*
X118250000Y-58750000D01*
X113750000Y-44750000D02*
X102780634Y-44750000D01*
X102717134Y-44686500D02*
X101782866Y-44686500D01*
X101782866Y-44686500D02*
X101719366Y-44750000D01*
%TO.N,VOLT+*%
X99750000Y-49055000D02*
X100000000Y-49305000D01*
X99750000Y-44615800D02*
X99750000Y-49055000D01*
%TO.N,CURR+*%
X100500000Y-48847458D02*
X100500000Y-49305000D01*
X100151000Y-48498458D02*
X100500000Y-48847458D01*
X100151000Y-44781900D02*
X100151000Y-48498458D01*
X101141800Y-43791100D02*
X100151000Y-44781900D01*
X103416100Y-43948000D02*
X103259200Y-43791100D01*
X119052000Y-48917800D02*
X113916100Y-43781900D01*
X112919500Y-43781900D02*
X112753400Y-43948000D01*
X112753400Y-43948000D02*
X103416100Y-43948000D01*
X113916100Y-43781900D02*
X112919500Y-43781900D01*
X119052000Y-67948000D02*
X119052000Y-48917800D01*
X103259200Y-43791100D02*
X101141800Y-43791100D01*
X111750000Y-75250000D02*
X119052000Y-67948000D01*
X100431000Y-49236000D02*
X100500000Y-49305000D01*
%TO.N,VOLT+*%
X100975700Y-43390100D02*
X99750000Y-44615800D01*
X112587300Y-43547000D02*
X103582200Y-43547000D01*
X103582200Y-43547000D02*
X103425300Y-43390100D01*
X114082200Y-43380900D02*
X112753400Y-43380900D01*
X119453000Y-48751700D02*
X114082200Y-43380900D01*
X119453000Y-72547000D02*
X119453000Y-48751700D01*
X112753400Y-43380900D02*
X112587300Y-43547000D01*
X103425300Y-43390100D02*
X100975700Y-43390100D01*
X111750000Y-80250000D02*
X119453000Y-72547000D01*
D24*
%TO.N,+3.3V*%
X109750000Y-60250000D02*
X105250000Y-64750000D01*
X114250000Y-60250000D02*
X109750000Y-60250000D01*
X117075000Y-57425000D02*
X114250000Y-60250000D01*
X105250000Y-64750000D02*
X104874000Y-64750000D01*
D25*
X104874000Y-64750000D02*
X104874000Y-64679670D01*
D24*
X117075000Y-52750000D02*
X117075000Y-57425000D01*
D25*
X104250000Y-64055670D02*
X104250000Y-61750000D01*
X104874000Y-64679670D02*
X104250000Y-64055670D01*
X104250000Y-61750000D02*
X104250000Y-60075000D01*
%TO.N,INT*%
X103000000Y-63372770D02*
X103000000Y-56195000D01*
X104473000Y-66654230D02*
X104473000Y-64845770D01*
X90137230Y-80990000D02*
X104473000Y-66654230D01*
X104473000Y-64845770D02*
X103000000Y-63372770D01*
X89590000Y-80990000D02*
X90137230Y-80990000D01*
%TO.N,GND*%
X94387500Y-47887500D02*
X94250000Y-47750000D01*
X94387500Y-49250000D02*
X94387500Y-47887500D01*
X94387500Y-51750000D02*
X94387500Y-49250000D01*
X100025000Y-59975000D02*
X99250000Y-60750000D01*
X100250000Y-59975000D02*
X100025000Y-59975000D01*
X106500000Y-55500000D02*
X107250000Y-56250000D01*
X106195000Y-55500000D02*
X106500000Y-55500000D01*
X105000000Y-57000000D02*
X105250000Y-57250000D01*
X105000000Y-56195000D02*
X105000000Y-57000000D01*
X100000000Y-57000000D02*
X99750000Y-57250000D01*
X100000000Y-56195000D02*
X100000000Y-57000000D01*
X95525000Y-59525000D02*
X94750000Y-58750000D01*
X95525000Y-59750000D02*
X95525000Y-59525000D01*
X102250000Y-45525000D02*
X103250000Y-46525000D01*
X103250000Y-46525000D02*
X103250000Y-47250000D01*
X103026000Y-47474000D02*
X103250000Y-47250000D01*
X103026000Y-49279000D02*
X103026000Y-47474000D01*
X103000000Y-49305000D02*
X103026000Y-49279000D01*
X107775000Y-53500000D02*
X108750000Y-54475000D01*
X106195000Y-53500000D02*
X107775000Y-53500000D01*
X113475000Y-54475000D02*
X113750000Y-54750000D01*
X112250000Y-54475000D02*
X113475000Y-54475000D01*
X110750000Y-49250000D02*
X111250000Y-49750000D01*
X110112500Y-49250000D02*
X110750000Y-49250000D01*
X95525000Y-56975000D02*
X95750000Y-56750000D01*
X95525000Y-57750000D02*
X95525000Y-56975000D01*
X94750000Y-56250000D02*
X94250000Y-56750000D01*
X94750000Y-55475000D02*
X94750000Y-56250000D01*
X88750000Y-58750000D02*
X89250000Y-58750000D01*
X88112500Y-59387500D02*
X88750000Y-58750000D01*
X88112500Y-59750000D02*
X88112500Y-59387500D01*
X89750000Y-57750000D02*
X88000000Y-57750000D01*
X91750000Y-56250000D02*
X91250000Y-56750000D01*
X91750000Y-55475000D02*
X91750000Y-56250000D01*
X113475000Y-57975000D02*
X113750000Y-58250000D01*
X112250000Y-57975000D02*
X113475000Y-57975000D01*
X85700000Y-55100000D02*
X85350000Y-54750000D01*
X85700000Y-56000000D02*
X85700000Y-55100000D01*
X86387500Y-54612500D02*
X86250000Y-54750000D01*
X86387500Y-53750000D02*
X86387500Y-54612500D01*
X91750000Y-55475000D02*
X94750000Y-55475000D01*
D24*
%TO.N,+3.3V*%
X84349000Y-61093100D02*
X86404900Y-63149000D01*
X92130000Y-64789749D02*
X92130000Y-65750000D01*
X84349000Y-53083900D02*
X84349000Y-61093100D01*
X90489251Y-63149000D02*
X92130000Y-64789749D01*
X84859900Y-52573000D02*
X84349000Y-53083900D01*
X90573000Y-52573000D02*
X84859900Y-52573000D01*
X86404900Y-63149000D02*
X90489251Y-63149000D01*
X91750000Y-53750000D02*
X90573000Y-52573000D01*
D25*
%TO.N,GND*%
X89590000Y-63910000D02*
X89750000Y-63750000D01*
X89590000Y-65750000D02*
X89590000Y-63910000D01*
%TO.N,MOSI*%
X96051000Y-67131000D02*
X94670000Y-65750000D01*
X102862030Y-67131000D02*
X96051000Y-67131000D01*
X103671000Y-66322030D02*
X102862030Y-67131000D01*
%TO.N,MISO*%
X95066070Y-67532000D02*
X103028130Y-67532000D01*
X93690000Y-65344070D02*
X93690000Y-66155930D01*
X94264070Y-64770000D02*
X93690000Y-65344070D01*
X97210000Y-65750000D02*
X96230000Y-64770000D01*
%TO.N,SCK*%
X101500000Y-64392900D02*
X101500000Y-56195000D01*
X103270000Y-65344070D02*
X102622380Y-64696450D01*
X103270000Y-66155930D02*
X103270000Y-65344070D01*
X102695930Y-66730000D02*
X103270000Y-66155930D01*
X100730000Y-66730000D02*
X102695930Y-66730000D01*
%TO.N,CS*%
X101026000Y-64486000D02*
X102290000Y-65750000D01*
%TO.N,MISO*%
X103028130Y-67532000D02*
X104072000Y-66488130D01*
%TO.N,CS*%
X101026000Y-56221000D02*
X101026000Y-64486000D01*
%TO.N,MISO*%
X102500000Y-63439870D02*
X102500000Y-56195000D01*
%TO.N,CS*%
X101000000Y-56195000D02*
X101026000Y-56221000D01*
%TO.N,SCK*%
X99750000Y-65750000D02*
X100730000Y-66730000D01*
X101803550Y-64696450D02*
X101500000Y-64392900D01*
%TO.N,MISO*%
X93690000Y-66155930D02*
X95066070Y-67532000D01*
%TO.N,MOSI*%
X102000000Y-63506970D02*
X103671000Y-65177970D01*
%TO.N,MISO*%
X104072000Y-65011870D02*
X102500000Y-63439870D01*
%TO.N,MOSI*%
X102000000Y-56195000D02*
X102000000Y-63506970D01*
%TO.N,SCK*%
X102622380Y-64696450D02*
X101803550Y-64696450D01*
%TO.N,MOSI*%
X103671000Y-65177970D02*
X103671000Y-66322030D01*
%TO.N,MISO*%
X96230000Y-64770000D02*
X94264070Y-64770000D01*
X104072000Y-66488130D02*
X104072000Y-65011870D01*
%TO.N,OSC_IN*%
X87612500Y-53250000D02*
X88112500Y-53750000D01*
X86917134Y-52974000D02*
X87193134Y-53250000D01*
X85857866Y-52974000D02*
X86917134Y-52974000D01*
X84750000Y-53250000D02*
X85581866Y-53250000D01*
X84750000Y-60927000D02*
X84750000Y-53250000D01*
X87193134Y-53250000D02*
X87612500Y-53250000D01*
X85581866Y-53250000D02*
X85857866Y-52974000D01*
X97945734Y-60927000D02*
X84750000Y-60927000D01*
X98890500Y-59982234D02*
X97945734Y-60927000D01*
X99305000Y-55500000D02*
X98890500Y-55914500D01*
X98890500Y-55914500D02*
X98890500Y-59982234D01*
%TO.N,+3.3V*%
X104250000Y-60075000D02*
X104473000Y-60298000D01*
D24*
%TO.N,AVDD*%
X103500000Y-48000000D02*
X103500000Y-49305000D01*
X104750000Y-46750000D02*
X103500000Y-48000000D01*
X113750000Y-51250000D02*
X113750000Y-49750000D01*
X115250000Y-52750000D02*
X113750000Y-51250000D01*
X113750000Y-49750000D02*
X110750000Y-46750000D01*
X110750000Y-46750000D02*
X104750000Y-46750000D01*
D25*
%TO.N,VBIAS_CAP*%
X107250000Y-52362500D02*
X107112500Y-52500000D01*
X107112500Y-52500000D02*
X106195000Y-52500000D01*
X107250000Y-50387500D02*
X107250000Y-52362500D01*
X108387500Y-49250000D02*
X107250000Y-50387500D01*
%TO.N,OSC_IN*%
X88112500Y-55887500D02*
X88000000Y-56000000D01*
X88112500Y-53750000D02*
X88112500Y-55887500D01*
%TO.N,OSC_OUT*%
X86387500Y-59750000D02*
X86387500Y-58437500D01*
X86387500Y-58437500D02*
X85700000Y-57750000D01*
X98489500Y-59816134D02*
X97779634Y-60526000D01*
X98489500Y-55357958D02*
X98489500Y-59816134D01*
X97779634Y-60526000D02*
X87163500Y-60526000D01*
X98847458Y-55000000D02*
X98489500Y-55357958D01*
X87163500Y-60526000D02*
X86387500Y-59750000D01*
X99305000Y-55000000D02*
X98847458Y-55000000D01*
%TO.N,Net-(U2-VZERO0)*%
X98088500Y-58911500D02*
X97250000Y-59750000D01*
X98088500Y-54758958D02*
X98088500Y-58911500D01*
X98847458Y-54000000D02*
X98088500Y-54758958D01*
X99305000Y-54000000D02*
X98847458Y-54000000D01*
%TO.N,VREF_1V8*%
X102500000Y-47500000D02*
X102500000Y-49305000D01*
X102250000Y-47250000D02*
X102500000Y-47500000D01*
%TO.N,GND*%
X108750000Y-57975000D02*
X112250000Y-57975000D01*
X108750000Y-54475000D02*
X112250000Y-54475000D01*
%TO.N,Net-(U2-~{RESET})*%
X104500000Y-58000000D02*
X104500000Y-56195000D01*
X104250000Y-58250000D02*
X104500000Y-58000000D01*
%TO.N,DVDD_REG_1V8*%
X100250000Y-58250000D02*
X100500000Y-58000000D01*
X100500000Y-58000000D02*
X100500000Y-56195000D01*
%TO.N,+3.3V*%
X108250000Y-56250000D02*
X108750000Y-56250000D01*
D24*
X107000000Y-55000000D02*
X108250000Y-56250000D01*
X106195000Y-55000000D02*
X107000000Y-55000000D01*
X113575000Y-56250000D02*
X117075000Y-52750000D01*
X112250000Y-56250000D02*
X113575000Y-56250000D01*
X108750000Y-56250000D02*
X112250000Y-56250000D01*
%TO.N,AVDD*%
X115250000Y-52750000D02*
X112250000Y-52750000D01*
X108750000Y-52750000D02*
X112250000Y-52750000D01*
D25*
X108750000Y-52750000D02*
X108500000Y-53000000D01*
D24*
X108500000Y-53000000D02*
X106195000Y-53000000D01*
D25*
%TO.N,AVDD_REG*%
X97250000Y-51750000D02*
X97500000Y-52000000D01*
X97500000Y-52000000D02*
X99305000Y-52000000D01*
X96112500Y-51750000D02*
X97250000Y-51750000D01*
%TO.N,VREF_2V5*%
X98525000Y-51500000D02*
X99305000Y-51500000D01*
X96112500Y-49250000D02*
X97087500Y-50225000D01*
X97087500Y-50225000D02*
X97250000Y-50225000D01*
X97250000Y-50225000D02*
X98525000Y-51500000D01*
%TO.N,Net-(U2-VBIAS0)*%
X98000000Y-53500000D02*
X99305000Y-53500000D01*
X97250000Y-54250000D02*
X98000000Y-53500000D01*
X97250000Y-57750000D02*
X97250000Y-54250000D01*
D24*
%TO.N,+3.3V*%
X92250000Y-53750000D02*
X95250000Y-53750000D01*
X96555634Y-53750000D02*
X97805634Y-52500000D01*
X95250000Y-53750000D02*
X96555634Y-53750000D01*
X97805634Y-52500000D02*
X99305000Y-52500000D01*
%TD*%
M02*
