%TF.GenerationSoftware,KiCad,Pcbnew,9.0.6*%
%TF.CreationDate,2026-06-10T23:29:41-07:00*%
%TF.ProjectId,extrava,65787472-6176-4612-9e6b-696361645f70,1*%
%TF.SameCoordinates,Original*%
%TF.FileFunction,Paste,Top*%
%TF.FilePolarity,Positive*%
%FSLAX46Y46*%
G04 Gerber Fmt 4.6, Leading zero omitted, Abs format (unit mm)*
G04 Created by KiCad (PCBNEW 9.0.6) date 2026-06-10 23:29:41*
%MOMM*%
%LPD*%
G01*
G04 APERTURE LIST*
G04 Aperture macros list*
%AMRoundRect*
0 Rectangle with rounded corners*
0 $1 Rounding radius*
0 $2 $3 $4 $5 $6 $7 $8 $9 X,Y pos of 4 corners*
0 Add a 4 corners polygon primitive as box body*
4,1,4,$2,$3,$4,$5,$6,$7,$8,$9,$2,$3,0*
0 Add four circle primitives for the rounded corners*
1,1,$1+$1,$2,$3*
1,1,$1+$1,$4,$5*
1,1,$1+$1,$6,$7*
1,1,$1+$1,$8,$9*
0 Add four rect primitives between the rounded corners*
20,1,$1+$1,$2,$3,$4,$5,0*
20,1,$1+$1,$4,$5,$6,$7,0*
20,1,$1+$1,$6,$7,$8,$9,0*
20,1,$1+$1,$8,$9,$2,$3,0*%
G04 Aperture macros list end*
%ADD10C,0.010000*%
%ADD11RoundRect,0.237500X0.300000X0.237500X-0.300000X0.237500X-0.300000X-0.237500X0.300000X-0.237500X0*%
%ADD12RoundRect,0.237500X-0.300000X-0.237500X0.300000X-0.237500X0.300000X0.237500X-0.300000X0.237500X0*%
%ADD13RoundRect,0.237500X-0.237500X0.300000X-0.237500X-0.300000X0.237500X-0.300000X0.237500X0.300000X0*%
%ADD14RoundRect,0.032500X-0.097500X-0.387500X0.097500X-0.387500X0.097500X0.387500X-0.097500X0.387500X0*%
%ADD15RoundRect,0.032500X-0.387500X-0.097500X0.387500X-0.097500X0.387500X0.097500X-0.387500X0.097500X0*%
%ADD16R,1.300000X1.050000*%
%ADD17RoundRect,0.237500X0.237500X-0.250000X0.237500X0.250000X-0.237500X0.250000X-0.237500X-0.250000X0*%
%ADD18RoundRect,0.237500X-0.250000X-0.237500X0.250000X-0.237500X0.250000X0.237500X-0.250000X0.237500X0*%
%ADD19RoundRect,0.237500X0.237500X-0.300000X0.237500X0.300000X-0.237500X0.300000X-0.237500X-0.300000X0*%
G04 APERTURE END LIST*
D10*
%TO.C,U2*%
X102285000Y-52285000D02*
X100665000Y-52285000D01*
X100665000Y-50665000D01*
X102285000Y-50665000D01*
X102285000Y-52285000D01*
G36*
X102285000Y-52285000D02*
G01*
X100665000Y-52285000D01*
X100665000Y-50665000D01*
X102285000Y-50665000D01*
X102285000Y-52285000D01*
G37*
X104835000Y-52285000D02*
X103215000Y-52285000D01*
X103215000Y-50665000D01*
X104835000Y-50665000D01*
X104835000Y-52285000D01*
G36*
X104835000Y-52285000D02*
G01*
X103215000Y-52285000D01*
X103215000Y-50665000D01*
X104835000Y-50665000D01*
X104835000Y-52285000D01*
G37*
X102285000Y-54835000D02*
X100665000Y-54835000D01*
X100665000Y-53215000D01*
X102285000Y-53215000D01*
X102285000Y-54835000D01*
G36*
X102285000Y-54835000D02*
G01*
X100665000Y-54835000D01*
X100665000Y-53215000D01*
X102285000Y-53215000D01*
X102285000Y-54835000D01*
G37*
X104835000Y-54835000D02*
X103215000Y-54835000D01*
X103215000Y-53215000D01*
X104835000Y-53215000D01*
X104835000Y-54835000D01*
G36*
X104835000Y-54835000D02*
G01*
X103215000Y-54835000D01*
X103215000Y-53215000D01*
X104835000Y-53215000D01*
X104835000Y-54835000D01*
G37*
%TD*%
D11*
%TO.C,C13*%
X108387500Y-49250000D03*
X110112500Y-49250000D03*
%TD*%
D12*
%TO.C,C12*%
X94387500Y-49250000D03*
X96112500Y-49250000D03*
%TD*%
%TO.C,C9*%
X96112500Y-51750000D03*
X94387500Y-51750000D03*
%TD*%
D13*
%TO.C,C4*%
X91750000Y-53750000D03*
X91750000Y-55475000D03*
%TD*%
%TO.C,C3*%
X94750000Y-53750000D03*
X94750000Y-55475000D03*
%TD*%
D14*
%TO.C,U2*%
X100000000Y-56195000D03*
X100500000Y-56195000D03*
X101000000Y-56195000D03*
X101500000Y-56195000D03*
X102000000Y-56195000D03*
X102500000Y-56195000D03*
X103000000Y-56195000D03*
X103500000Y-56195000D03*
X104000000Y-56195000D03*
X104500000Y-56195000D03*
X105000000Y-56195000D03*
X105500000Y-56195000D03*
X105500000Y-49305000D03*
X105000000Y-49305000D03*
X104500000Y-49305000D03*
X104000000Y-49305000D03*
X103500000Y-49305000D03*
X103000000Y-49305000D03*
X102500000Y-49305000D03*
X102000000Y-49305000D03*
X101500000Y-49305000D03*
X101000000Y-49305000D03*
X100500000Y-49305000D03*
X100000000Y-49305000D03*
D15*
X99305000Y-50000000D03*
X99305000Y-50500000D03*
X99305000Y-51000000D03*
X99305000Y-51500000D03*
X99305000Y-52000000D03*
X99305000Y-52500000D03*
X99305000Y-53000000D03*
X99305000Y-53500000D03*
X99305000Y-54000000D03*
X99305000Y-54500000D03*
X99305000Y-55000000D03*
X99305000Y-55500000D03*
X106195000Y-55500000D03*
X106195000Y-55000000D03*
X106195000Y-54500000D03*
X106195000Y-54000000D03*
X106195000Y-53500000D03*
X106195000Y-53000000D03*
X106195000Y-52500000D03*
X106195000Y-52000000D03*
X106195000Y-51500000D03*
X106195000Y-51000000D03*
X106195000Y-50500000D03*
X106195000Y-50000000D03*
%TD*%
D16*
%TO.C,Y1*%
X88000000Y-56000000D03*
X85700000Y-56000000D03*
X85700000Y-57750000D03*
X88000000Y-57750000D03*
%TD*%
D17*
%TO.C,R1*%
X104250000Y-60075000D03*
X104250000Y-58250000D03*
%TD*%
D18*
%TO.C,FB1*%
X115250000Y-52750000D03*
X117075000Y-52750000D03*
%TD*%
D12*
%TO.C,C16*%
X95525000Y-59750000D03*
X97250000Y-59750000D03*
%TD*%
%TO.C,C15*%
X95525000Y-57750000D03*
X97250000Y-57750000D03*
%TD*%
D13*
%TO.C,C11*%
X102250000Y-45525000D03*
X102250000Y-47250000D03*
%TD*%
D19*
%TO.C,C10*%
X100250000Y-59975000D03*
X100250000Y-58250000D03*
%TD*%
D12*
%TO.C,C8*%
X86387500Y-59750000D03*
X88112500Y-59750000D03*
%TD*%
D11*
%TO.C,C7*%
X88112500Y-53750000D03*
X86387500Y-53750000D03*
%TD*%
D13*
%TO.C,C6*%
X112250000Y-56250000D03*
X112250000Y-57975000D03*
%TD*%
%TO.C,C5*%
X108750000Y-56250000D03*
X108750000Y-57975000D03*
%TD*%
%TO.C,C2*%
X108750000Y-52750000D03*
X108750000Y-54475000D03*
%TD*%
%TO.C,C1*%
X112250000Y-52750000D03*
X112250000Y-54475000D03*
%TD*%
M02*
