%TF.GenerationSoftware,KiCad,Pcbnew,9.0.6*%
%TF.CreationDate,2026-06-10T23:29:41-07:00*%
%TF.ProjectId,extrava,65787472-6176-4612-9e6b-696361645f70,1*%
%TF.SameCoordinates,Original*%
%TF.FileFunction,Copper,L2,Bot*%
%TF.FilePolarity,Positive*%
%FSLAX46Y46*%
G04 Gerber Fmt 4.6, Leading zero omitted, Abs format (unit mm)*
G04 Created by KiCad (PCBNEW 9.0.6) date 2026-06-10 23:29:41*
%MOMM*%
%LPD*%
G01*
G04 APERTURE LIST*
G04 Aperture macros list*
%AMRoundRect*
0 Rectangle with rounded corners*
0 $1 Rounding radius*
0 $2 $3 $4 $5 $6 $7 $8 $9 X,Y pos of 4 corners*
0 Add a 4 corners polygon primitive as box body*
4,1,4,$2,$3,$4,$5,$6,$7,$8,$9,$2,$3,0*
0 Add four circle primitives for the rounded corners*
1,1,$1+$1,$2,$3*
1,1,$1+$1,$4,$5*
1,1,$1+$1,$6,$7*
1,1,$1+$1,$8,$9*
0 Add four rect primitives between the rounded corners*
20,1,$1+$1,$2,$3,$4,$5,0*
20,1,$1+$1,$4,$5,$6,$7,0*
20,1,$1+$1,$6,$7,$8,$9,0*
20,1,$1+$1,$8,$9,$2,$3,0*%
G04 Aperture macros list end*
%TA.AperFunction,ComponentPad*%
%ADD10RoundRect,0.250002X-1.499998X1.499998X-1.499998X-1.499998X1.499998X-1.499998X1.499998X1.499998X0*%
%TD*%
%TA.AperFunction,ComponentPad*%
%ADD11R,1.358000X1.358000*%
%TD*%
%TA.AperFunction,ComponentPad*%
%ADD12C,1.358000*%
%TD*%
%TA.AperFunction,ViaPad*%
%ADD13C,0.600000*%
%TD*%
G04 APERTURE END LIST*
D10*
%TO.P,J1,1,Pin_1*%
%TO.N,CURR+*%
X111750000Y-75250000D03*
%TD*%
%TO.P,J2,1,Pin_1*%
%TO.N,VOLT+*%
X111750000Y-80250000D03*
%TD*%
%TO.P,J3,1,Pin_1*%
%TO.N,CURR-*%
X111750000Y-65250000D03*
%TD*%
%TO.P,J4,1,Pin_1*%
%TO.N,VOLT-*%
X111750000Y-70250000D03*
%TD*%
D11*
%TO.P,U1,1,D0*%
%TO.N,unconnected-(U1-D0-Pad1)*%
X87050000Y-80990000D03*
D12*
%TO.P,U1,2,D1*%
%TO.N,INT*%
X89590000Y-80990000D03*
%TO.P,U1,3,D2*%
%TO.N,unconnected-(U1-D2-Pad3)*%
X92130000Y-80990000D03*
%TO.P,U1,7,TX_D6*%
%TO.N,unconnected-(U1-TX_D6-Pad7)*%
X102290000Y-80990000D03*
%TO.P,U1,6,D5*%
%TO.N,unconnected-(U1-D5-Pad6)*%
X99750000Y-80990000D03*
%TO.P,U1,5,D4*%
%TO.N,unconnected-(U1-D4-Pad5)*%
X97210000Y-80990000D03*
%TO.P,U1,4,D3*%
%TO.N,unconnected-(U1-D3-Pad4)*%
X94670000Y-80990000D03*
%TO.P,U1,14,VUSB*%
%TO.N,unconnected-(U1-VUSB-Pad14)*%
X87050000Y-65750000D03*
%TO.P,U1,13,GND*%
%TO.N,GND*%
X89590000Y-65750000D03*
%TO.P,U1,12,VCC_3V3*%
%TO.N,+3.3V*%
X92130000Y-65750000D03*
%TO.P,U1,8,RX_D7*%
%TO.N,CS*%
X102290000Y-65750000D03*
%TO.P,U1,9,D8*%
%TO.N,SCK*%
X99750000Y-65750000D03*
%TO.P,U1,10,D9*%
%TO.N,MISO*%
X97210000Y-65750000D03*
%TO.P,U1,11,D10*%
%TO.N,MOSI*%
X94670000Y-65750000D03*
%TD*%
D13*
%TO.N,GND*%
X94250000Y-47750000D03*
X99250000Y-60750000D03*
X107250000Y-56250000D03*
X105250000Y-57250000D03*
X99750000Y-57250000D03*
X94750000Y-58750000D03*
X103250000Y-47250000D03*
X113750000Y-54750000D03*
X111250000Y-49750000D03*
X95750000Y-56750000D03*
X94250000Y-56750000D03*
X89250000Y-58750000D03*
X91250000Y-56750000D03*
X89750000Y-57750000D03*
X113750000Y-58250000D03*
X85350000Y-54750000D03*
X86250000Y-54750000D03*
X89750000Y-63750000D03*
%TD*%
%TA.AperFunction,Conductor*%
%TO.N,GND*%
G36*
X120792539Y-43270185D02*
G01*
X120838294Y-43322989D01*
X120849500Y-43374500D01*
X120849500Y-82765500D01*
X120829815Y-82832539D01*
X120777011Y-82878294D01*
X120725500Y-82889500D01*
X83874500Y-82889500D01*
X83807461Y-82869815D01*
X83761706Y-82817011D01*
X83750500Y-82765500D01*
X83750500Y-80263135D01*
X85870500Y-80263135D01*
X85870500Y-81716870D01*
X85870501Y-81716876D01*
X85876908Y-81776483D01*
X85927202Y-81911328D01*
X85927206Y-81911335D01*
X86013452Y-82026544D01*
X86013455Y-82026547D01*
X86128664Y-82112793D01*
X86128671Y-82112797D01*
X86263517Y-82163091D01*
X86263516Y-82163091D01*
X86270444Y-82163835D01*
X86323127Y-82169500D01*
X87776872Y-82169499D01*
X87836483Y-82163091D01*
X87971331Y-82112796D01*
X88086546Y-82026546D01*
X88172796Y-81911331D01*
X88223091Y-81776483D01*
X88229500Y-81716873D01*
X88229499Y-81402653D01*
X88249183Y-81335617D01*
X88301987Y-81289862D01*
X88371146Y-81279918D01*
X88434701Y-81308943D01*
X88471430Y-81364337D01*
X88496916Y-81442775D01*
X88581201Y-81608193D01*
X88690328Y-81758393D01*
X88821607Y-81889672D01*
X88971807Y-81998799D01*
X89137229Y-82083085D01*
X89313800Y-82140457D01*
X89382564Y-82151348D01*
X89497166Y-82169500D01*
X89497171Y-82169500D01*
X89682834Y-82169500D01*
X89784701Y-82153365D01*
X89866200Y-82140457D01*
X90042771Y-82083085D01*
X90208193Y-81998799D01*
X90358393Y-81889672D01*
X90489672Y-81758393D01*
X90598799Y-81608193D01*
X90683085Y-81442771D01*
X90740457Y-81266200D01*
X90740458Y-81266196D01*
X90741962Y-81261567D01*
X90744147Y-81262277D01*
X90774203Y-81209914D01*
X90836224Y-81177740D01*
X90905794Y-81184205D01*
X90960824Y-81227256D01*
X90976692Y-81262004D01*
X90978038Y-81261567D01*
X90979542Y-81266196D01*
X90979543Y-81266200D01*
X91036915Y-81442771D01*
X91121201Y-81608193D01*
X91230328Y-81758393D01*
X91361607Y-81889672D01*
X91511807Y-81998799D01*
X91677229Y-82083085D01*
X91853800Y-82140457D01*
X91922564Y-82151348D01*
X92037166Y-82169500D01*
X92037171Y-82169500D01*
X92222834Y-82169500D01*
X92324701Y-82153365D01*
X92406200Y-82140457D01*
X92582771Y-82083085D01*
X92748193Y-81998799D01*
X92898393Y-81889672D01*
X93029672Y-81758393D01*
X93138799Y-81608193D01*
X93223085Y-81442771D01*
X93280457Y-81266200D01*
X93280458Y-81266196D01*
X93281962Y-81261567D01*
X93284147Y-81262277D01*
X93314203Y-81209914D01*
X93376224Y-81177740D01*
X93445794Y-81184205D01*
X93500824Y-81227256D01*
X93516692Y-81262004D01*
X93518038Y-81261567D01*
X93519542Y-81266196D01*
X93519543Y-81266200D01*
X93576915Y-81442771D01*
X93661201Y-81608193D01*
X93770328Y-81758393D01*
X93901607Y-81889672D01*
X94051807Y-81998799D01*
X94217229Y-82083085D01*
X94393800Y-82140457D01*
X94462564Y-82151348D01*
X94577166Y-82169500D01*
X94577171Y-82169500D01*
X94762834Y-82169500D01*
X94864701Y-82153365D01*
X94946200Y-82140457D01*
X95122771Y-82083085D01*
X95288193Y-81998799D01*
X95438393Y-81889672D01*
X95569672Y-81758393D01*
X95678799Y-81608193D01*
X95763085Y-81442771D01*
X95820457Y-81266200D01*
X95820458Y-81266196D01*
X95821962Y-81261567D01*
X95824147Y-81262277D01*
X95854203Y-81209914D01*
X95916224Y-81177740D01*
X95985794Y-81184205D01*
X96040824Y-81227256D01*
X96056692Y-81262004D01*
X96058038Y-81261567D01*
X96059542Y-81266196D01*
X96059543Y-81266200D01*
X96116915Y-81442771D01*
X96201201Y-81608193D01*
X96310328Y-81758393D01*
X96441607Y-81889672D01*
X96591807Y-81998799D01*
X96757229Y-82083085D01*
X96933800Y-82140457D01*
X97002564Y-82151348D01*
X97117166Y-82169500D01*
X97117171Y-82169500D01*
X97302834Y-82169500D01*
X97404701Y-82153365D01*
X97486200Y-82140457D01*
X97662771Y-82083085D01*
X97828193Y-81998799D01*
X97978393Y-81889672D01*
X98109672Y-81758393D01*
X98218799Y-81608193D01*
X98303085Y-81442771D01*
X98360457Y-81266200D01*
X98360458Y-81266196D01*
X98361962Y-81261567D01*
X98364147Y-81262277D01*
X98394203Y-81209914D01*
X98456224Y-81177740D01*
X98525794Y-81184205D01*
X98580824Y-81227256D01*
X98596692Y-81262004D01*
X98598038Y-81261567D01*
X98599542Y-81266196D01*
X98599543Y-81266200D01*
X98656915Y-81442771D01*
X98741201Y-81608193D01*
X98850328Y-81758393D01*
X98981607Y-81889672D01*
X99131807Y-81998799D01*
X99297229Y-82083085D01*
X99473800Y-82140457D01*
X99542564Y-82151348D01*
X99657166Y-82169500D01*
X99657171Y-82169500D01*
X99842834Y-82169500D01*
X99944701Y-82153365D01*
X100026200Y-82140457D01*
X100202771Y-82083085D01*
X100368193Y-81998799D01*
X100518393Y-81889672D01*
X100649672Y-81758393D01*
X100758799Y-81608193D01*
X100843085Y-81442771D01*
X100900457Y-81266200D01*
X100900458Y-81266196D01*
X100901962Y-81261567D01*
X100904147Y-81262277D01*
X100934203Y-81209914D01*
X100996224Y-81177740D01*
X101065794Y-81184205D01*
X101120824Y-81227256D01*
X101136692Y-81262004D01*
X101138038Y-81261567D01*
X101139542Y-81266196D01*
X101139543Y-81266200D01*
X101196915Y-81442771D01*
X101281201Y-81608193D01*
X101390328Y-81758393D01*
X101521607Y-81889672D01*
X101671807Y-81998799D01*
X101837229Y-82083085D01*
X102013800Y-82140457D01*
X102082564Y-82151348D01*
X102197166Y-82169500D01*
X102197171Y-82169500D01*
X102382834Y-82169500D01*
X102484701Y-82153365D01*
X102566200Y-82140457D01*
X102742771Y-82083085D01*
X102908193Y-81998799D01*
X103058393Y-81889672D01*
X103189672Y-81758393D01*
X103298799Y-81608193D01*
X103383085Y-81442771D01*
X103440457Y-81266200D01*
X103454468Y-81177740D01*
X103469500Y-81082834D01*
X103469500Y-80897165D01*
X103446617Y-80752692D01*
X103440457Y-80713800D01*
X103383085Y-80537229D01*
X103298799Y-80371807D01*
X103189672Y-80221607D01*
X103058393Y-80090328D01*
X102908193Y-79981201D01*
X102742771Y-79896915D01*
X102566200Y-79839543D01*
X102566198Y-79839542D01*
X102566196Y-79839542D01*
X102382834Y-79810500D01*
X102382829Y-79810500D01*
X102197171Y-79810500D01*
X102197166Y-79810500D01*
X102013803Y-79839542D01*
X101837226Y-79896916D01*
X101671806Y-79981201D01*
X101586111Y-80043462D01*
X101521607Y-80090328D01*
X101521605Y-80090330D01*
X101521604Y-80090330D01*
X101390330Y-80221604D01*
X101390330Y-80221605D01*
X101390328Y-80221607D01*
X101360156Y-80263135D01*
X101281201Y-80371806D01*
X101196916Y-80537226D01*
X101196915Y-80537228D01*
X101196915Y-80537229D01*
X101143853Y-80700537D01*
X101138038Y-80718433D01*
X101135864Y-80717726D01*
X101105752Y-80770129D01*
X101043714Y-80802271D01*
X100974148Y-80795771D01*
X100919139Y-80752692D01*
X100903295Y-80717999D01*
X100901962Y-80718433D01*
X100900457Y-80713800D01*
X100843085Y-80537229D01*
X100758799Y-80371807D01*
X100649672Y-80221607D01*
X100518393Y-80090328D01*
X100368193Y-79981201D01*
X100202771Y-79896915D01*
X100026200Y-79839543D01*
X100026198Y-79839542D01*
X100026196Y-79839542D01*
X99842834Y-79810500D01*
X99842829Y-79810500D01*
X99657171Y-79810500D01*
X99657166Y-79810500D01*
X99473803Y-79839542D01*
X99297226Y-79896916D01*
X99131806Y-79981201D01*
X99046111Y-80043462D01*
X98981607Y-80090328D01*
X98981605Y-80090330D01*
X98981604Y-80090330D01*
X98850330Y-80221604D01*
X98850330Y-80221605D01*
X98850328Y-80221607D01*
X98820156Y-80263135D01*
X98741201Y-80371806D01*
X98656916Y-80537226D01*
X98656915Y-80537228D01*
X98656915Y-80537229D01*
X98603853Y-80700537D01*
X98598038Y-80718433D01*
X98595864Y-80717726D01*
X98565752Y-80770129D01*
X98503714Y-80802271D01*
X98434148Y-80795771D01*
X98379139Y-80752692D01*
X98363295Y-80717999D01*
X98361962Y-80718433D01*
X98360457Y-80713800D01*
X98303085Y-80537229D01*
X98218799Y-80371807D01*
X98109672Y-80221607D01*
X97978393Y-80090328D01*
X97828193Y-79981201D01*
X97662771Y-79896915D01*
X97486200Y-79839543D01*
X97486198Y-79839542D01*
X97486196Y-79839542D01*
X97302834Y-79810500D01*
X97302829Y-79810500D01*
X97117171Y-79810500D01*
X97117166Y-79810500D01*
X96933803Y-79839542D01*
X96757226Y-79896916D01*
X96591806Y-79981201D01*
X96506111Y-80043462D01*
X96441607Y-80090328D01*
X96441605Y-80090330D01*
X96441604Y-80090330D01*
X96310330Y-80221604D01*
X96310330Y-80221605D01*
X96310328Y-80221607D01*
X96280156Y-80263135D01*
X96201201Y-80371806D01*
X96116916Y-80537226D01*
X96116915Y-80537228D01*
X96116915Y-80537229D01*
X96063853Y-80700537D01*
X96058038Y-80718433D01*
X96055864Y-80717726D01*
X96025752Y-80770129D01*
X95963714Y-80802271D01*
X95894148Y-80795771D01*
X95839139Y-80752692D01*
X95823295Y-80717999D01*
X95821962Y-80718433D01*
X95820457Y-80713800D01*
X95763085Y-80537229D01*
X95678799Y-80371807D01*
X95569672Y-80221607D01*
X95438393Y-80090328D01*
X95288193Y-79981201D01*
X95122771Y-79896915D01*
X94946200Y-79839543D01*
X94946198Y-79839542D01*
X94946196Y-79839542D01*
X94762834Y-79810500D01*
X94762829Y-79810500D01*
X94577171Y-79810500D01*
X94577166Y-79810500D01*
X94393803Y-79839542D01*
X94217226Y-79896916D01*
X94051806Y-79981201D01*
X93966111Y-80043462D01*
X93901607Y-80090328D01*
X93901605Y-80090330D01*
X93901604Y-80090330D01*
X93770330Y-80221604D01*
X93770330Y-80221605D01*
X93770328Y-80221607D01*
X93740156Y-80263135D01*
X93661201Y-80371806D01*
X93576916Y-80537226D01*
X93576915Y-80537228D01*
X93576915Y-80537229D01*
X93523853Y-80700537D01*
X93518038Y-80718433D01*
X93515864Y-80717726D01*
X93485752Y-80770129D01*
X93423714Y-80802271D01*
X93354148Y-80795771D01*
X93299139Y-80752692D01*
X93283295Y-80717999D01*
X93281962Y-80718433D01*
X93280457Y-80713800D01*
X93223085Y-80537229D01*
X93138799Y-80371807D01*
X93029672Y-80221607D01*
X92898393Y-80090328D01*
X92748193Y-79981201D01*
X92582771Y-79896915D01*
X92406200Y-79839543D01*
X92406198Y-79839542D01*
X92406196Y-79839542D01*
X92222834Y-79810500D01*
X92222829Y-79810500D01*
X92037171Y-79810500D01*
X92037166Y-79810500D01*
X91853803Y-79839542D01*
X91677226Y-79896916D01*
X91511806Y-79981201D01*
X91426111Y-80043462D01*
X91361607Y-80090328D01*
X91361605Y-80090330D01*
X91361604Y-80090330D01*
X91230330Y-80221604D01*
X91230330Y-80221605D01*
X91230328Y-80221607D01*
X91200156Y-80263135D01*
X91121201Y-80371806D01*
X91036916Y-80537226D01*
X91036915Y-80537228D01*
X91036915Y-80537229D01*
X90983853Y-80700537D01*
X90978038Y-80718433D01*
X90975864Y-80717726D01*
X90945752Y-80770129D01*
X90883714Y-80802271D01*
X90814148Y-80795771D01*
X90759139Y-80752692D01*
X90743295Y-80717999D01*
X90741962Y-80718433D01*
X90740457Y-80713800D01*
X90683085Y-80537229D01*
X90598799Y-80371807D01*
X90489672Y-80221607D01*
X90358393Y-80090328D01*
X90208193Y-79981201D01*
X90042771Y-79896915D01*
X89866200Y-79839543D01*
X89866198Y-79839542D01*
X89866196Y-79839542D01*
X89682834Y-79810500D01*
X89682829Y-79810500D01*
X89497171Y-79810500D01*
X89497166Y-79810500D01*
X89313803Y-79839542D01*
X89137226Y-79896916D01*
X88971806Y-79981201D01*
X88886111Y-80043462D01*
X88821607Y-80090328D01*
X88821605Y-80090330D01*
X88821604Y-80090330D01*
X88690330Y-80221604D01*
X88690330Y-80221605D01*
X88690328Y-80221607D01*
X88660156Y-80263135D01*
X88581201Y-80371806D01*
X88496916Y-80537224D01*
X88471430Y-80615664D01*
X88431992Y-80673339D01*
X88367633Y-80700537D01*
X88298787Y-80688622D01*
X88247311Y-80641378D01*
X88229499Y-80577345D01*
X88229499Y-80263129D01*
X88229498Y-80263123D01*
X88229497Y-80263116D01*
X88223091Y-80203517D01*
X88180874Y-80090328D01*
X88172797Y-80068671D01*
X88172793Y-80068664D01*
X88086547Y-79953455D01*
X88086544Y-79953452D01*
X87971335Y-79867206D01*
X87971328Y-79867202D01*
X87836482Y-79816908D01*
X87836483Y-79816908D01*
X87776883Y-79810501D01*
X87776881Y-79810500D01*
X87776873Y-79810500D01*
X87776864Y-79810500D01*
X86323129Y-79810500D01*
X86323123Y-79810501D01*
X86263516Y-79816908D01*
X86128671Y-79867202D01*
X86128664Y-79867206D01*
X86013455Y-79953452D01*
X86013452Y-79953455D01*
X85927206Y-80068664D01*
X85927202Y-80068671D01*
X85876908Y-80203517D01*
X85870501Y-80263116D01*
X85870501Y-80263123D01*
X85870500Y-80263135D01*
X83750500Y-80263135D01*
X83750500Y-78699985D01*
X109499500Y-78699985D01*
X109499500Y-81799999D01*
X109499501Y-81800016D01*
X109510000Y-81902795D01*
X109510001Y-81902798D01*
X109541813Y-81998798D01*
X109565186Y-82069333D01*
X109657289Y-82218655D01*
X109781345Y-82342711D01*
X109930667Y-82434814D01*
X110097204Y-82489999D01*
X110199993Y-82500500D01*
X113300006Y-82500499D01*
X113402796Y-82489999D01*
X113569333Y-82434814D01*
X113718655Y-82342711D01*
X113842711Y-82218655D01*
X113934814Y-82069333D01*
X113989999Y-81902796D01*
X114000500Y-81800007D01*
X114000499Y-78699994D01*
X113989999Y-78597204D01*
X113934814Y-78430667D01*
X113842711Y-78281345D01*
X113718655Y-78157289D01*
X113569333Y-78065186D01*
X113402796Y-78010001D01*
X113402794Y-78010000D01*
X113300008Y-77999500D01*
X110200000Y-77999500D01*
X110199983Y-77999501D01*
X110097204Y-78010000D01*
X110097201Y-78010001D01*
X109930669Y-78065185D01*
X109930664Y-78065187D01*
X109781343Y-78157290D01*
X109657290Y-78281343D01*
X109565187Y-78430664D01*
X109565186Y-78430667D01*
X109510001Y-78597204D01*
X109510001Y-78597205D01*
X109510000Y-78597205D01*
X109499500Y-78699985D01*
X83750500Y-78699985D01*
X83750500Y-73699985D01*
X109499500Y-73699985D01*
X109499500Y-76799999D01*
X109499501Y-76800016D01*
X109510000Y-76902795D01*
X109510001Y-76902798D01*
X109565185Y-77069330D01*
X109565186Y-77069333D01*
X109657289Y-77218655D01*
X109781345Y-77342711D01*
X109930667Y-77434814D01*
X110097204Y-77489999D01*
X110199993Y-77500500D01*
X113300006Y-77500499D01*
X113402796Y-77489999D01*
X113569333Y-77434814D01*
X113718655Y-77342711D01*
X113842711Y-77218655D01*
X113934814Y-77069333D01*
X113989999Y-76902796D01*
X114000500Y-76800007D01*
X114000499Y-73699994D01*
X113989999Y-73597204D01*
X113934814Y-73430667D01*
X113842711Y-73281345D01*
X113718655Y-73157289D01*
X113569333Y-73065186D01*
X113402796Y-73010001D01*
X113402794Y-73010000D01*
X113300008Y-72999500D01*
X110200000Y-72999500D01*
X110199983Y-72999501D01*
X110097204Y-73010000D01*
X110097201Y-73010001D01*
X109930669Y-73065185D01*
X109930664Y-73065187D01*
X109781343Y-73157290D01*
X109657290Y-73281343D01*
X109565187Y-73430664D01*
X109565186Y-73430667D01*
X109510001Y-73597204D01*
X109510001Y-73597205D01*
X109510000Y-73597205D01*
X109499500Y-73699985D01*
X83750500Y-73699985D01*
X83750500Y-68699985D01*
X109499500Y-68699985D01*
X109499500Y-71799999D01*
X109499501Y-71800016D01*
X109510000Y-71902795D01*
X109510001Y-71902798D01*
X109565185Y-72069330D01*
X109565186Y-72069333D01*
X109657289Y-72218655D01*
X109781345Y-72342711D01*
X109930667Y-72434814D01*
X110097204Y-72489999D01*
X110199993Y-72500500D01*
X113300006Y-72500499D01*
X113402796Y-72489999D01*
X113569333Y-72434814D01*
X113718655Y-72342711D01*
X113842711Y-72218655D01*
X113934814Y-72069333D01*
X113989999Y-71902796D01*
X114000500Y-71800007D01*
X114000499Y-68699994D01*
X113989999Y-68597204D01*
X113934814Y-68430667D01*
X113842711Y-68281345D01*
X113718655Y-68157289D01*
X113569333Y-68065186D01*
X113402796Y-68010001D01*
X113402794Y-68010000D01*
X113300008Y-67999500D01*
X110200000Y-67999500D01*
X110199983Y-67999501D01*
X110097204Y-68010000D01*
X110097201Y-68010001D01*
X109930669Y-68065185D01*
X109930664Y-68065187D01*
X109781343Y-68157290D01*
X109657290Y-68281343D01*
X109565187Y-68430664D01*
X109565186Y-68430667D01*
X109510001Y-68597204D01*
X109510001Y-68597205D01*
X109510000Y-68597205D01*
X109499500Y-68699985D01*
X83750500Y-68699985D01*
X83750500Y-65657165D01*
X85870500Y-65657165D01*
X85870500Y-65842834D01*
X85899542Y-66026196D01*
X85899543Y-66026200D01*
X85956915Y-66202771D01*
X86041201Y-66368193D01*
X86150328Y-66518393D01*
X86281607Y-66649672D01*
X86431807Y-66758799D01*
X86597229Y-66843085D01*
X86773800Y-66900457D01*
X86842564Y-66911348D01*
X86957166Y-66929500D01*
X86957171Y-66929500D01*
X87142834Y-66929500D01*
X87244701Y-66913365D01*
X87326200Y-66900457D01*
X87502771Y-66843085D01*
X87668193Y-66758799D01*
X87818393Y-66649672D01*
X87949672Y-66518393D01*
X88058799Y-66368193D01*
X88143085Y-66202771D01*
X88200457Y-66026200D01*
X88200458Y-66026196D01*
X88201962Y-66021567D01*
X88203852Y-66022181D01*
X88234436Y-65968863D01*
X88296449Y-65936673D01*
X88366020Y-65943120D01*
X88421062Y-65986156D01*
X88437367Y-66021825D01*
X88438525Y-66021449D01*
X88497379Y-66202583D01*
X88581629Y-66367931D01*
X88597151Y-66389294D01*
X88597151Y-66389295D01*
X89168274Y-65818171D01*
X89193963Y-65914044D01*
X89249916Y-66010956D01*
X89329044Y-66090084D01*
X89425956Y-66146037D01*
X89521827Y-66171725D01*
X88950704Y-66742847D01*
X88950704Y-66742848D01*
X88972068Y-66758370D01*
X89137416Y-66842620D01*
X89313916Y-66899968D01*
X89497212Y-66929000D01*
X89682788Y-66929000D01*
X89866083Y-66899968D01*
X90042583Y-66842620D01*
X90207933Y-66758368D01*
X90207940Y-66758364D01*
X90229294Y-66742848D01*
X90229295Y-66742847D01*
X89658173Y-66171725D01*
X89754044Y-66146037D01*
X89850956Y-66090084D01*
X89930084Y-66010956D01*
X89986037Y-65914044D01*
X90011725Y-65818173D01*
X90582847Y-66389295D01*
X90582848Y-66389294D01*
X90598364Y-66367940D01*
X90598368Y-66367933D01*
X90682620Y-66202583D01*
X90741475Y-66021449D01*
X90743398Y-66022073D01*
X90773923Y-65968861D01*
X90835937Y-65936673D01*
X90905508Y-65943121D01*
X90960549Y-65986159D01*
X90976901Y-66021936D01*
X90978038Y-66021567D01*
X90979542Y-66026196D01*
X90979543Y-66026200D01*
X91036915Y-66202771D01*
X91121201Y-66368193D01*
X91230328Y-66518393D01*
X91361607Y-66649672D01*
X91511807Y-66758799D01*
X91677229Y-66843085D01*
X91853800Y-66900457D01*
X91922564Y-66911348D01*
X92037166Y-66929500D01*
X92037171Y-66929500D01*
X92222834Y-66929500D01*
X92324701Y-66913365D01*
X92406200Y-66900457D01*
X92582771Y-66843085D01*
X92748193Y-66758799D01*
X92898393Y-66649672D01*
X93029672Y-66518393D01*
X93138799Y-66368193D01*
X93223085Y-66202771D01*
X93280457Y-66026200D01*
X93280458Y-66026196D01*
X93281962Y-66021567D01*
X93284147Y-66022277D01*
X93314203Y-65969914D01*
X93376224Y-65937740D01*
X93445794Y-65944205D01*
X93500824Y-65987256D01*
X93516692Y-66022004D01*
X93518038Y-66021567D01*
X93519542Y-66026196D01*
X93519543Y-66026200D01*
X93576915Y-66202771D01*
X93661201Y-66368193D01*
X93770328Y-66518393D01*
X93901607Y-66649672D01*
X94051807Y-66758799D01*
X94217229Y-66843085D01*
X94393800Y-66900457D01*
X94462564Y-66911348D01*
X94577166Y-66929500D01*
X94577171Y-66929500D01*
X94762834Y-66929500D01*
X94864701Y-66913365D01*
X94946200Y-66900457D01*
X95122771Y-66843085D01*
X95288193Y-66758799D01*
X95438393Y-66649672D01*
X95569672Y-66518393D01*
X95678799Y-66368193D01*
X95763085Y-66202771D01*
X95820457Y-66026200D01*
X95820458Y-66026196D01*
X95821962Y-66021567D01*
X95824147Y-66022277D01*
X95854203Y-65969914D01*
X95916224Y-65937740D01*
X95985794Y-65944205D01*
X96040824Y-65987256D01*
X96056692Y-66022004D01*
X96058038Y-66021567D01*
X96059542Y-66026196D01*
X96059543Y-66026200D01*
X96116915Y-66202771D01*
X96201201Y-66368193D01*
X96310328Y-66518393D01*
X96441607Y-66649672D01*
X96591807Y-66758799D01*
X96757229Y-66843085D01*
X96933800Y-66900457D01*
X97002564Y-66911348D01*
X97117166Y-66929500D01*
X97117171Y-66929500D01*
X97302834Y-66929500D01*
X97404701Y-66913365D01*
X97486200Y-66900457D01*
X97662771Y-66843085D01*
X97828193Y-66758799D01*
X97978393Y-66649672D01*
X98109672Y-66518393D01*
X98218799Y-66368193D01*
X98303085Y-66202771D01*
X98360457Y-66026200D01*
X98360458Y-66026196D01*
X98361962Y-66021567D01*
X98364147Y-66022277D01*
X98394203Y-65969914D01*
X98456224Y-65937740D01*
X98525794Y-65944205D01*
X98580824Y-65987256D01*
X98596692Y-66022004D01*
X98598038Y-66021567D01*
X98599542Y-66026196D01*
X98599543Y-66026200D01*
X98656915Y-66202771D01*
X98741201Y-66368193D01*
X98850328Y-66518393D01*
X98981607Y-66649672D01*
X99131807Y-66758799D01*
X99297229Y-66843085D01*
X99473800Y-66900457D01*
X99542564Y-66911348D01*
X99657166Y-66929500D01*
X99657171Y-66929500D01*
X99842834Y-66929500D01*
X99944701Y-66913365D01*
X100026200Y-66900457D01*
X100202771Y-66843085D01*
X100368193Y-66758799D01*
X100518393Y-66649672D01*
X100649672Y-66518393D01*
X100758799Y-66368193D01*
X100843085Y-66202771D01*
X100900457Y-66026200D01*
X100900458Y-66026196D01*
X100901962Y-66021567D01*
X100904147Y-66022277D01*
X100934203Y-65969914D01*
X100996224Y-65937740D01*
X101065794Y-65944205D01*
X101120824Y-65987256D01*
X101136692Y-66022004D01*
X101138038Y-66021567D01*
X101139542Y-66026196D01*
X101139543Y-66026200D01*
X101196915Y-66202771D01*
X101281201Y-66368193D01*
X101390328Y-66518393D01*
X101521607Y-66649672D01*
X101671807Y-66758799D01*
X101837229Y-66843085D01*
X102013800Y-66900457D01*
X102082564Y-66911348D01*
X102197166Y-66929500D01*
X102197171Y-66929500D01*
X102382834Y-66929500D01*
X102484701Y-66913365D01*
X102566200Y-66900457D01*
X102742771Y-66843085D01*
X102908193Y-66758799D01*
X103058393Y-66649672D01*
X103189672Y-66518393D01*
X103298799Y-66368193D01*
X103383085Y-66202771D01*
X103440457Y-66026200D01*
X103458221Y-65914044D01*
X103469500Y-65842834D01*
X103469500Y-65657165D01*
X103441209Y-65478551D01*
X103440457Y-65473800D01*
X103383085Y-65297229D01*
X103298799Y-65131807D01*
X103189672Y-64981607D01*
X103058393Y-64850328D01*
X102908193Y-64741201D01*
X102742771Y-64656915D01*
X102566200Y-64599543D01*
X102566198Y-64599542D01*
X102566196Y-64599542D01*
X102382834Y-64570500D01*
X102382829Y-64570500D01*
X102197171Y-64570500D01*
X102197166Y-64570500D01*
X102013803Y-64599542D01*
X101837226Y-64656916D01*
X101671806Y-64741201D01*
X101586111Y-64803462D01*
X101521607Y-64850328D01*
X101521605Y-64850330D01*
X101521604Y-64850330D01*
X101390330Y-64981604D01*
X101390330Y-64981605D01*
X101390328Y-64981607D01*
X101343462Y-65046111D01*
X101281201Y-65131806D01*
X101196916Y-65297226D01*
X101196915Y-65297228D01*
X101196915Y-65297229D01*
X101160301Y-65409916D01*
X101138038Y-65478433D01*
X101135864Y-65477726D01*
X101105752Y-65530129D01*
X101043714Y-65562271D01*
X100974148Y-65555771D01*
X100919139Y-65512692D01*
X100903295Y-65477999D01*
X100901962Y-65478433D01*
X100900457Y-65473800D01*
X100843085Y-65297229D01*
X100758799Y-65131807D01*
X100649672Y-64981607D01*
X100518393Y-64850328D01*
X100368193Y-64741201D01*
X100202771Y-64656915D01*
X100026200Y-64599543D01*
X100026198Y-64599542D01*
X100026196Y-64599542D01*
X99842834Y-64570500D01*
X99842829Y-64570500D01*
X99657171Y-64570500D01*
X99657166Y-64570500D01*
X99473803Y-64599542D01*
X99297226Y-64656916D01*
X99131806Y-64741201D01*
X99046111Y-64803462D01*
X98981607Y-64850328D01*
X98981605Y-64850330D01*
X98981604Y-64850330D01*
X98850330Y-64981604D01*
X98850330Y-64981605D01*
X98850328Y-64981607D01*
X98803462Y-65046111D01*
X98741201Y-65131806D01*
X98656916Y-65297226D01*
X98656915Y-65297228D01*
X98656915Y-65297229D01*
X98620301Y-65409916D01*
X98598038Y-65478433D01*
X98595864Y-65477726D01*
X98565752Y-65530129D01*
X98503714Y-65562271D01*
X98434148Y-65555771D01*
X98379139Y-65512692D01*
X98363295Y-65477999D01*
X98361962Y-65478433D01*
X98360457Y-65473800D01*
X98303085Y-65297229D01*
X98218799Y-65131807D01*
X98109672Y-64981607D01*
X97978393Y-64850328D01*
X97828193Y-64741201D01*
X97662771Y-64656915D01*
X97486200Y-64599543D01*
X97486198Y-64599542D01*
X97486196Y-64599542D01*
X97302834Y-64570500D01*
X97302829Y-64570500D01*
X97117171Y-64570500D01*
X97117166Y-64570500D01*
X96933803Y-64599542D01*
X96757226Y-64656916D01*
X96591806Y-64741201D01*
X96506111Y-64803462D01*
X96441607Y-64850328D01*
X96441605Y-64850330D01*
X96441604Y-64850330D01*
X96310330Y-64981604D01*
X96310330Y-64981605D01*
X96310328Y-64981607D01*
X96263462Y-65046111D01*
X96201201Y-65131806D01*
X96116916Y-65297226D01*
X96116915Y-65297228D01*
X96116915Y-65297229D01*
X96080301Y-65409916D01*
X96058038Y-65478433D01*
X96055864Y-65477726D01*
X96025752Y-65530129D01*
X95963714Y-65562271D01*
X95894148Y-65555771D01*
X95839139Y-65512692D01*
X95823295Y-65477999D01*
X95821962Y-65478433D01*
X95820457Y-65473800D01*
X95763085Y-65297229D01*
X95678799Y-65131807D01*
X95569672Y-64981607D01*
X95438393Y-64850328D01*
X95288193Y-64741201D01*
X95122771Y-64656915D01*
X94946200Y-64599543D01*
X94946198Y-64599542D01*
X94946196Y-64599542D01*
X94762834Y-64570500D01*
X94762829Y-64570500D01*
X94577171Y-64570500D01*
X94577166Y-64570500D01*
X94393803Y-64599542D01*
X94217226Y-64656916D01*
X94051806Y-64741201D01*
X93966111Y-64803462D01*
X93901607Y-64850328D01*
X93901605Y-64850330D01*
X93901604Y-64850330D01*
X93770330Y-64981604D01*
X93770330Y-64981605D01*
X93770328Y-64981607D01*
X93723462Y-65046111D01*
X93661201Y-65131806D01*
X93576916Y-65297226D01*
X93576915Y-65297228D01*
X93576915Y-65297229D01*
X93540301Y-65409916D01*
X93518038Y-65478433D01*
X93515864Y-65477726D01*
X93485752Y-65530129D01*
X93423714Y-65562271D01*
X93354148Y-65555771D01*
X93299139Y-65512692D01*
X93283295Y-65477999D01*
X93281962Y-65478433D01*
X93280457Y-65473800D01*
X93223085Y-65297229D01*
X93138799Y-65131807D01*
X93029672Y-64981607D01*
X92898393Y-64850328D01*
X92748193Y-64741201D01*
X92582771Y-64656915D01*
X92406200Y-64599543D01*
X92406198Y-64599542D01*
X92406196Y-64599542D01*
X92222834Y-64570500D01*
X92222829Y-64570500D01*
X92037171Y-64570500D01*
X92037166Y-64570500D01*
X91853803Y-64599542D01*
X91677226Y-64656916D01*
X91511806Y-64741201D01*
X91426111Y-64803462D01*
X91361607Y-64850328D01*
X91361605Y-64850330D01*
X91361604Y-64850330D01*
X91230330Y-64981604D01*
X91230330Y-64981605D01*
X91230328Y-64981607D01*
X91183462Y-65046111D01*
X91121201Y-65131806D01*
X91036916Y-65297226D01*
X91036915Y-65297228D01*
X91036915Y-65297229D01*
X91000301Y-65409916D01*
X90978038Y-65478433D01*
X90976166Y-65477825D01*
X90945494Y-65531202D01*
X90883456Y-65563344D01*
X90813890Y-65556844D01*
X90758881Y-65513765D01*
X90742638Y-65478172D01*
X90741475Y-65478551D01*
X90682620Y-65297416D01*
X90598370Y-65132068D01*
X90582847Y-65110704D01*
X90011725Y-65681826D01*
X89986037Y-65585956D01*
X89930084Y-65489044D01*
X89850956Y-65409916D01*
X89754044Y-65353963D01*
X89658172Y-65328274D01*
X90229295Y-64757151D01*
X90207931Y-64741629D01*
X90042583Y-64657379D01*
X89866083Y-64600031D01*
X89682788Y-64571000D01*
X89497212Y-64571000D01*
X89313916Y-64600031D01*
X89137416Y-64657379D01*
X88972065Y-64741631D01*
X88950704Y-64757150D01*
X88950704Y-64757151D01*
X89521828Y-65328274D01*
X89425956Y-65353963D01*
X89329044Y-65409916D01*
X89249916Y-65489044D01*
X89193963Y-65585956D01*
X89168274Y-65681827D01*
X88597150Y-65110704D01*
X88581631Y-65132065D01*
X88497379Y-65297416D01*
X88438525Y-65478551D01*
X88436622Y-65477932D01*
X88406001Y-65531210D01*
X88343961Y-65563346D01*
X88274394Y-65556840D01*
X88219389Y-65513756D01*
X88203103Y-65478062D01*
X88201962Y-65478433D01*
X88200457Y-65473800D01*
X88143085Y-65297229D01*
X88058799Y-65131807D01*
X87949672Y-64981607D01*
X87818393Y-64850328D01*
X87668193Y-64741201D01*
X87502771Y-64656915D01*
X87326200Y-64599543D01*
X87326198Y-64599542D01*
X87326196Y-64599542D01*
X87142834Y-64570500D01*
X87142829Y-64570500D01*
X86957171Y-64570500D01*
X86957166Y-64570500D01*
X86773803Y-64599542D01*
X86597226Y-64656916D01*
X86431806Y-64741201D01*
X86346111Y-64803462D01*
X86281607Y-64850328D01*
X86281605Y-64850330D01*
X86281604Y-64850330D01*
X86150330Y-64981604D01*
X86150330Y-64981605D01*
X86150328Y-64981607D01*
X86103462Y-65046111D01*
X86041201Y-65131806D01*
X85956916Y-65297226D01*
X85899542Y-65473803D01*
X85870500Y-65657165D01*
X83750500Y-65657165D01*
X83750500Y-63699985D01*
X109499500Y-63699985D01*
X109499500Y-66799999D01*
X109499501Y-66800016D01*
X109510000Y-66902795D01*
X109510001Y-66902798D01*
X109565185Y-67069330D01*
X109565186Y-67069333D01*
X109657289Y-67218655D01*
X109781345Y-67342711D01*
X109930667Y-67434814D01*
X110097204Y-67489999D01*
X110199993Y-67500500D01*
X113300006Y-67500499D01*
X113402796Y-67489999D01*
X113569333Y-67434814D01*
X113718655Y-67342711D01*
X113842711Y-67218655D01*
X113934814Y-67069333D01*
X113989999Y-66902796D01*
X114000500Y-66800007D01*
X114000499Y-63699994D01*
X113989999Y-63597204D01*
X113934814Y-63430667D01*
X113842711Y-63281345D01*
X113718655Y-63157289D01*
X113569333Y-63065186D01*
X113402796Y-63010001D01*
X113402794Y-63010000D01*
X113300008Y-62999500D01*
X110200000Y-62999500D01*
X110199983Y-62999501D01*
X110097204Y-63010000D01*
X110097201Y-63010001D01*
X109930669Y-63065185D01*
X109930664Y-63065187D01*
X109781343Y-63157290D01*
X109657290Y-63281343D01*
X109565187Y-63430664D01*
X109565186Y-63430667D01*
X109510001Y-63597204D01*
X109510001Y-63597205D01*
X109510000Y-63597205D01*
X109499500Y-63699985D01*
X83750500Y-63699985D01*
X83750500Y-43374500D01*
X83770185Y-43307461D01*
X83822989Y-43261706D01*
X83874500Y-43250500D01*
X120725500Y-43250500D01*
X120792539Y-43270185D01*
G37*
%TD.AperFunction*%
%TD*%
M02*
