M48
; DRILL file {KiCad 9.0.6} date 2026-06-15T19:53:15-0700
; FORMAT={-:-/ absolute / metric / decimal}
; #@! TF.CreationDate,2026-06-15T19:53:15-07:00
; #@! TF.GenerationSoftware,Kicad,Pcbnew,9.0.6
; #@! TF.FileFunction,Plated,1,2,PTH
FMAT,2
METRIC
; #@! TA.AperFunction,Plated,PTH,ViaDrill
T1C0.300
; #@! TA.AperFunction,Plated,PTH,ComponentDrill
T2C0.850
; #@! TA.AperFunction,Plated,PTH,ComponentDrill
T3C1.600
%
G90
G05
T1
X85.35Y-54.75
X86.25Y-54.75
X89.25Y-58.75
X89.59Y-64.0
X89.75Y-57.75
X91.25Y-56.75
X94.25Y-47.75
X94.25Y-56.75
X94.75Y-58.75
X95.75Y-56.75
X99.25Y-60.75
X99.75Y-57.25
X103.25Y-47.25
X105.25Y-57.25
X106.5Y-57.0
X111.25Y-49.5
X111.5Y-54.725
X111.5Y-58.25
T2
X87.05Y-65.75
X87.05Y-80.99
X89.59Y-65.75
X89.59Y-80.99
X92.13Y-65.75
X92.13Y-80.99
X94.67Y-65.75
X94.67Y-80.99
X97.21Y-65.75
X97.21Y-80.99
X99.75Y-65.75
X99.75Y-80.99
X102.29Y-65.75
X102.29Y-80.99
T3
X111.75Y-65.25
X111.75Y-70.25
X111.75Y-75.25
X111.75Y-80.25
M30
