%TF.GenerationSoftware,KiCad,Pcbnew,9.0.6*%
%TF.CreationDate,2026-06-10T23:29:41-07:00*%
%TF.ProjectId,extrava,65787472-6176-4612-9e6b-696361645f70,1*%
%TF.SameCoordinates,Original*%
%TF.FileFunction,Legend,Top*%
%TF.FilePolarity,Positive*%
%FSLAX46Y46*%
G04 Gerber Fmt 4.6, Leading zero omitted, Abs format (unit mm)*
G04 Created by KiCad (PCBNEW 9.0.6) date 2026-06-10 23:29:41*
%MOMM*%
%LPD*%
G01*
G04 APERTURE LIST*
G04 Aperture macros list*
%AMRoundRect*
0 Rectangle with rounded corners*
0 $1 Rounding radius*
0 $2 $3 $4 $5 $6 $7 $8 $9 X,Y pos of 4 corners*
0 Add a 4 corners polygon primitive as box body*
4,1,4,$2,$3,$4,$5,$6,$7,$8,$9,$2,$3,0*
0 Add four circle primitives for the rounded corners*
1,1,$1+$1,$2,$3*
1,1,$1+$1,$4,$5*
1,1,$1+$1,$6,$7*
1,1,$1+$1,$8,$9*
0 Add four rect primitives between the rounded corners*
20,1,$1+$1,$2,$3,$4,$5,0*
20,1,$1+$1,$4,$5,$6,$7,0*
20,1,$1+$1,$6,$7,$8,$9,0*
20,1,$1+$1,$8,$9,$2,$3,0*%
G04 Aperture macros list end*
%ADD10C,0.300000*%
%ADD11C,0.150000*%
%ADD12C,0.120000*%
%ADD13C,0.200000*%
%ADD14C,0.127000*%
%ADD15RoundRect,0.250002X-1.499998X1.499998X-1.499998X-1.499998X1.499998X-1.499998X1.499998X1.499998X0*%
%ADD16RoundRect,0.237500X0.300000X0.237500X-0.300000X0.237500X-0.300000X-0.237500X0.300000X-0.237500X0*%
%ADD17RoundRect,0.237500X-0.300000X-0.237500X0.300000X-0.237500X0.300000X0.237500X-0.300000X0.237500X0*%
%ADD18RoundRect,0.237500X-0.237500X0.300000X-0.237500X-0.300000X0.237500X-0.300000X0.237500X0.300000X0*%
%ADD19RoundRect,0.102000X0.679000X-0.679000X0.679000X0.679000X-0.679000X0.679000X-0.679000X-0.679000X0*%
%ADD20C,1.562000*%
%ADD21RoundRect,0.058000X-0.174000X-0.464000X0.174000X-0.464000X0.174000X0.464000X-0.174000X0.464000X0*%
%ADD22RoundRect,0.058000X-0.464000X-0.174000X0.464000X-0.174000X0.464000X0.174000X-0.464000X0.174000X0*%
%ADD23RoundRect,0.102000X-2.550000X-2.550000X2.550000X-2.550000X2.550000X2.550000X-2.550000X2.550000X0*%
%ADD24RoundRect,0.102000X-0.650000X0.525000X-0.650000X-0.525000X0.650000X-0.525000X0.650000X0.525000X0*%
%ADD25RoundRect,0.237500X0.237500X-0.250000X0.237500X0.250000X-0.237500X0.250000X-0.237500X-0.250000X0*%
%ADD26RoundRect,0.237500X-0.250000X-0.237500X0.250000X-0.237500X0.250000X0.237500X-0.250000X0.237500X0*%
%ADD27RoundRect,0.237500X0.237500X-0.300000X0.237500X0.300000X-0.237500X0.300000X-0.237500X-0.300000X0*%
G04 APERTURE END LIST*
D10*
G36*
X86292101Y-46719870D02*
G01*
X86288379Y-46760815D01*
X86276437Y-46791833D01*
X86256585Y-46811530D01*
X86231614Y-46818200D01*
X85180076Y-46818200D01*
X85147846Y-46812471D01*
X85112455Y-46793695D01*
X85087552Y-46761531D01*
X85077869Y-46704050D01*
X85077869Y-44679140D01*
X85087558Y-44621689D01*
X85112455Y-44589651D01*
X85147855Y-44570752D01*
X85180076Y-44564991D01*
X86215950Y-44564991D01*
X86241075Y-44571815D01*
X86259997Y-44591512D01*
X86271008Y-44623461D01*
X86274731Y-44666888D01*
X86271008Y-44707833D01*
X86259997Y-44738076D01*
X86240920Y-44756842D01*
X86215950Y-44763511D01*
X85299498Y-44763511D01*
X85299498Y-45547668D01*
X86089238Y-45547668D01*
X86115914Y-45554337D01*
X86134991Y-45572793D01*
X86146002Y-45603347D01*
X86149725Y-45646153D01*
X86146002Y-45685857D01*
X86134836Y-45713929D01*
X86115759Y-45730679D01*
X86089238Y-45736262D01*
X85299498Y-45736262D01*
X85299498Y-46619679D01*
X86231614Y-46619679D01*
X86256585Y-46626348D01*
X86276437Y-46645114D01*
X86288379Y-46676133D01*
X86292101Y-46719870D01*
G37*
G36*
X87882592Y-46742358D02*
G01*
X87898102Y-46780977D01*
X87885384Y-46808429D01*
X87845680Y-46823628D01*
X87781161Y-46828126D01*
X87722225Y-46825334D01*
X87686088Y-46817269D01*
X87664065Y-46802535D01*
X87648555Y-46782683D01*
X87229491Y-46134234D01*
X86811977Y-46782683D01*
X86796468Y-46802535D01*
X86773514Y-46817269D01*
X86736601Y-46825334D01*
X86679371Y-46828126D01*
X86617489Y-46823628D01*
X86579491Y-46808429D01*
X86567704Y-46780822D01*
X86585229Y-46742203D01*
X87100142Y-45984878D01*
X86609269Y-45244459D01*
X86593759Y-45205995D01*
X86607253Y-45178544D01*
X86648818Y-45164120D01*
X86714113Y-45160553D01*
X86773048Y-45163344D01*
X86808255Y-45171564D01*
X86828572Y-45185368D01*
X86843306Y-45204289D01*
X87238176Y-45811328D01*
X87643437Y-45204289D01*
X87658016Y-45185368D01*
X87677558Y-45171564D01*
X87710128Y-45163344D01*
X87765651Y-45160553D01*
X87828309Y-45164120D01*
X87868013Y-45177458D01*
X87880731Y-45204134D01*
X87863361Y-45244459D01*
X87369075Y-45977899D01*
X87882592Y-46742358D01*
G37*
G36*
X89047040Y-46687145D02*
G01*
X89040681Y-46748252D01*
X89020674Y-46785940D01*
X88980969Y-46811530D01*
X88921724Y-46831227D01*
X88851776Y-46843635D01*
X88780122Y-46847978D01*
X88667875Y-46839521D01*
X88580206Y-46816493D01*
X88504586Y-46776385D01*
X88444809Y-46720800D01*
X88400249Y-46650153D01*
X88368347Y-46558882D01*
X88351098Y-46456567D01*
X88344773Y-46328877D01*
X88344773Y-45359073D01*
X88115544Y-45359073D01*
X88091539Y-45353166D01*
X88073358Y-45335189D01*
X88062683Y-45308077D01*
X88058469Y-45265706D01*
X88062036Y-45224762D01*
X88073203Y-45194828D01*
X88091349Y-45176372D01*
X88115544Y-45170479D01*
X88344773Y-45170479D01*
X88344773Y-44793445D01*
X88349736Y-44772042D01*
X88368037Y-44755602D01*
X88401848Y-44746296D01*
X88452098Y-44743659D01*
X88504210Y-44746296D01*
X88537090Y-44755602D01*
X88555391Y-44771887D01*
X88561285Y-44793445D01*
X88561285Y-45170479D01*
X88989965Y-45170479D01*
X89014160Y-45176372D01*
X89032306Y-45194828D01*
X89043317Y-45224762D01*
X89047040Y-45265706D01*
X89042539Y-45308117D01*
X89031065Y-45335344D01*
X89012544Y-45353333D01*
X88989965Y-45359073D01*
X88561285Y-45359073D01*
X88561285Y-46299564D01*
X88575629Y-46464362D01*
X88611380Y-46567877D01*
X88652329Y-46617384D01*
X88711029Y-46648068D01*
X88793926Y-46659383D01*
X88868371Y-46650853D01*
X88927462Y-46632086D01*
X88971974Y-46612855D01*
X89005629Y-46603859D01*
X89023620Y-46607892D01*
X89036803Y-46622626D01*
X89044248Y-46648682D01*
X89047040Y-46687145D01*
G37*
G36*
X90327808Y-45286644D02*
G01*
X90325946Y-45331001D01*
X90319588Y-45361400D01*
X90307645Y-45380786D01*
X90288103Y-45387921D01*
X90250416Y-45380011D01*
X90201716Y-45363416D01*
X90141384Y-45346976D01*
X90069576Y-45339221D01*
X89979466Y-45359073D01*
X89886254Y-45423127D01*
X89782962Y-45540689D01*
X89663384Y-45719512D01*
X89663384Y-46778185D01*
X89657335Y-46799898D01*
X89639189Y-46815408D01*
X89606464Y-46824558D01*
X89554198Y-46828126D01*
X89503792Y-46824558D01*
X89470137Y-46815408D01*
X89451836Y-46799743D01*
X89446872Y-46778185D01*
X89446872Y-45210493D01*
X89451836Y-45189090D01*
X89469982Y-45172650D01*
X89502086Y-45163344D01*
X89550786Y-45160553D01*
X89600416Y-45163189D01*
X89631590Y-45172650D01*
X89648030Y-45189090D01*
X89652993Y-45210493D01*
X89652993Y-45442049D01*
X89769313Y-45295019D01*
X89879585Y-45199636D01*
X89932953Y-45170284D01*
X89982413Y-45153108D01*
X90085240Y-45140701D01*
X90137662Y-45143337D01*
X90201561Y-45152798D01*
X90262978Y-45169083D01*
X90301597Y-45186764D01*
X90316641Y-45201653D01*
X90323310Y-45218248D01*
X90326877Y-45244614D01*
X90327808Y-45286644D01*
G37*
G36*
X91283972Y-45151372D02*
G01*
X91402921Y-45180094D01*
X91506170Y-45229078D01*
X91584381Y-45293003D01*
X91643300Y-45374074D01*
X91683486Y-45474308D01*
X91705440Y-45585787D01*
X91713264Y-45717496D01*
X91713264Y-46778030D01*
X91700702Y-46808429D01*
X91669062Y-46823473D01*
X91618036Y-46828126D01*
X91566390Y-46823628D01*
X91531959Y-46808429D01*
X91519396Y-46778030D01*
X91519396Y-46615491D01*
X91413768Y-46710823D01*
X91292959Y-46784699D01*
X91161543Y-46832299D01*
X91026507Y-46847978D01*
X90906242Y-46839551D01*
X90803482Y-46815718D01*
X90710906Y-46775578D01*
X90636135Y-46722972D01*
X90575753Y-46656364D01*
X90530826Y-46576718D01*
X90503562Y-46487332D01*
X90494069Y-46384401D01*
X90495828Y-46368892D01*
X90722522Y-46368892D01*
X90732472Y-46453637D01*
X90760682Y-46522981D01*
X90806894Y-46580440D01*
X90867795Y-46622715D01*
X90945730Y-46649612D01*
X91045584Y-46659383D01*
X91163211Y-46643792D01*
X91273107Y-46596880D01*
X91376807Y-46522106D01*
X91496908Y-46405029D01*
X91496908Y-46043969D01*
X91215567Y-46043969D01*
X91095266Y-46049945D01*
X90998125Y-46066303D01*
X90910638Y-46094700D01*
X90843651Y-46131132D01*
X90789450Y-46178587D01*
X90752300Y-46233029D01*
X90730229Y-46295512D01*
X90722522Y-46368892D01*
X90495828Y-46368892D01*
X90508236Y-46259487D01*
X90548507Y-46156102D01*
X90613664Y-46067673D01*
X90702670Y-45994339D01*
X90809530Y-45938944D01*
X90941826Y-45897560D01*
X91085684Y-45873732D01*
X91252014Y-45865301D01*
X91496908Y-45865301D01*
X91496908Y-45735022D01*
X91491429Y-45638374D01*
X91476280Y-45558990D01*
X91448721Y-45488033D01*
X91409590Y-45431812D01*
X91357676Y-45387632D01*
X91290012Y-45355041D01*
X91211887Y-45336277D01*
X91109637Y-45329295D01*
X91009344Y-45335663D01*
X90923524Y-45353645D01*
X90778666Y-45408238D01*
X90675219Y-45463296D01*
X90615197Y-45488112D01*
X90593949Y-45484234D01*
X90577354Y-45469655D01*
X90567893Y-45443755D01*
X90565102Y-45407152D01*
X90570530Y-45347906D01*
X90598447Y-45302929D01*
X90676925Y-45251283D01*
X90805188Y-45196845D01*
X90961212Y-45156210D01*
X91128714Y-45140701D01*
X91283972Y-45151372D01*
G37*
G36*
X93428606Y-45207081D02*
G01*
X93427676Y-45219023D01*
X93425969Y-45230655D01*
X93423178Y-45242287D01*
X93419611Y-45253764D01*
X92850570Y-46779891D01*
X92833510Y-46804396D01*
X92805903Y-46819130D01*
X92767439Y-46826419D01*
X92715793Y-46828126D01*
X92663061Y-46825334D01*
X92623822Y-46817269D01*
X92596371Y-46802690D01*
X92579310Y-46780046D01*
X92010114Y-45253764D01*
X92002205Y-45230965D01*
X91998637Y-45216542D01*
X91997707Y-45207081D01*
X92003601Y-45183662D01*
X92022057Y-45168928D01*
X92054161Y-45162414D01*
X92101620Y-45160553D01*
X92163037Y-45163344D01*
X92199950Y-45171564D01*
X92220577Y-45186608D01*
X92232830Y-45208632D01*
X92724013Y-46577183D01*
X92722772Y-46577648D01*
X92721532Y-46577183D01*
X93203719Y-45208942D01*
X93215041Y-45186608D01*
X93236755Y-45171564D01*
X93272736Y-45163344D01*
X93329966Y-45160553D01*
X93376650Y-45162414D01*
X93407048Y-45169858D01*
X93423488Y-45184747D01*
X93428606Y-45207081D01*
G37*
G36*
X94408189Y-45151372D02*
G01*
X94527138Y-45180094D01*
X94630387Y-45229078D01*
X94708599Y-45293003D01*
X94767518Y-45374074D01*
X94807704Y-45474308D01*
X94829658Y-45585787D01*
X94837482Y-45717496D01*
X94837482Y-46778030D01*
X94824919Y-46808429D01*
X94793280Y-46823473D01*
X94742254Y-46828126D01*
X94690608Y-46823628D01*
X94656177Y-46808429D01*
X94643614Y-46778030D01*
X94643614Y-46615491D01*
X94537985Y-46710823D01*
X94417177Y-46784699D01*
X94285761Y-46832299D01*
X94150725Y-46847978D01*
X94030459Y-46839551D01*
X93927699Y-46815718D01*
X93835124Y-46775578D01*
X93760353Y-46722972D01*
X93699971Y-46656364D01*
X93655044Y-46576718D01*
X93627780Y-46487332D01*
X93618286Y-46384401D01*
X93620045Y-46368892D01*
X93846740Y-46368892D01*
X93856690Y-46453637D01*
X93884900Y-46522981D01*
X93931111Y-46580440D01*
X93992012Y-46622715D01*
X94069948Y-46649612D01*
X94169801Y-46659383D01*
X94287429Y-46643792D01*
X94397325Y-46596880D01*
X94501024Y-46522106D01*
X94621125Y-46405029D01*
X94621125Y-46043969D01*
X94339785Y-46043969D01*
X94219483Y-46049945D01*
X94122342Y-46066303D01*
X94034856Y-46094700D01*
X93967869Y-46131132D01*
X93913668Y-46178587D01*
X93876518Y-46233029D01*
X93854447Y-46295512D01*
X93846740Y-46368892D01*
X93620045Y-46368892D01*
X93632454Y-46259487D01*
X93672724Y-46156102D01*
X93737881Y-46067673D01*
X93826888Y-45994339D01*
X93933748Y-45938944D01*
X94066043Y-45897560D01*
X94209901Y-45873732D01*
X94376232Y-45865301D01*
X94621125Y-45865301D01*
X94621125Y-45735022D01*
X94615647Y-45638374D01*
X94600498Y-45558990D01*
X94572939Y-45488033D01*
X94533807Y-45431812D01*
X94481894Y-45387632D01*
X94414230Y-45355041D01*
X94336105Y-45336277D01*
X94233855Y-45329295D01*
X94133561Y-45335663D01*
X94047742Y-45353645D01*
X93902884Y-45408238D01*
X93799436Y-45463296D01*
X93739415Y-45488112D01*
X93718167Y-45484234D01*
X93701572Y-45469655D01*
X93692111Y-45443755D01*
X93689319Y-45407152D01*
X93694748Y-45347906D01*
X93722665Y-45302929D01*
X93801142Y-45251283D01*
X93929405Y-45196845D01*
X94085430Y-45156210D01*
X94252932Y-45140701D01*
X94408189Y-45151372D01*
G37*
D11*
X114154819Y-75583333D02*
X114869104Y-75583333D01*
X114869104Y-75583333D02*
X115011961Y-75630952D01*
X115011961Y-75630952D02*
X115107200Y-75726190D01*
X115107200Y-75726190D02*
X115154819Y-75869047D01*
X115154819Y-75869047D02*
X115154819Y-75964285D01*
X115154819Y-74583333D02*
X115154819Y-75154761D01*
X115154819Y-74869047D02*
X114154819Y-74869047D01*
X114154819Y-74869047D02*
X114297676Y-74964285D01*
X114297676Y-74964285D02*
X114392914Y-75059523D01*
X114392914Y-75059523D02*
X114440533Y-75154761D01*
X114154819Y-80583333D02*
X114869104Y-80583333D01*
X114869104Y-80583333D02*
X115011961Y-80630952D01*
X115011961Y-80630952D02*
X115107200Y-80726190D01*
X115107200Y-80726190D02*
X115154819Y-80869047D01*
X115154819Y-80869047D02*
X115154819Y-80964285D01*
X114250057Y-80154761D02*
X114202438Y-80107142D01*
X114202438Y-80107142D02*
X114154819Y-80011904D01*
X114154819Y-80011904D02*
X114154819Y-79773809D01*
X114154819Y-79773809D02*
X114202438Y-79678571D01*
X114202438Y-79678571D02*
X114250057Y-79630952D01*
X114250057Y-79630952D02*
X114345295Y-79583333D01*
X114345295Y-79583333D02*
X114440533Y-79583333D01*
X114440533Y-79583333D02*
X114583390Y-79630952D01*
X114583390Y-79630952D02*
X115154819Y-80202380D01*
X115154819Y-80202380D02*
X115154819Y-79583333D01*
X114154819Y-65583333D02*
X114869104Y-65583333D01*
X114869104Y-65583333D02*
X115011961Y-65630952D01*
X115011961Y-65630952D02*
X115107200Y-65726190D01*
X115107200Y-65726190D02*
X115154819Y-65869047D01*
X115154819Y-65869047D02*
X115154819Y-65964285D01*
X114154819Y-65202380D02*
X114154819Y-64583333D01*
X114154819Y-64583333D02*
X114535771Y-64916666D01*
X114535771Y-64916666D02*
X114535771Y-64773809D01*
X114535771Y-64773809D02*
X114583390Y-64678571D01*
X114583390Y-64678571D02*
X114631009Y-64630952D01*
X114631009Y-64630952D02*
X114726247Y-64583333D01*
X114726247Y-64583333D02*
X114964342Y-64583333D01*
X114964342Y-64583333D02*
X115059580Y-64630952D01*
X115059580Y-64630952D02*
X115107200Y-64678571D01*
X115107200Y-64678571D02*
X115154819Y-64773809D01*
X115154819Y-64773809D02*
X115154819Y-65059523D01*
X115154819Y-65059523D02*
X115107200Y-65154761D01*
X115107200Y-65154761D02*
X115059580Y-65202380D01*
X114154819Y-70583333D02*
X114869104Y-70583333D01*
X114869104Y-70583333D02*
X115011961Y-70630952D01*
X115011961Y-70630952D02*
X115107200Y-70726190D01*
X115107200Y-70726190D02*
X115154819Y-70869047D01*
X115154819Y-70869047D02*
X115154819Y-70964285D01*
X114488152Y-69678571D02*
X115154819Y-69678571D01*
X114107200Y-69916666D02*
X114821485Y-70154761D01*
X114821485Y-70154761D02*
X114821485Y-69535714D01*
X108107142Y-48109580D02*
X108059523Y-48157200D01*
X108059523Y-48157200D02*
X107916666Y-48204819D01*
X107916666Y-48204819D02*
X107821428Y-48204819D01*
X107821428Y-48204819D02*
X107678571Y-48157200D01*
X107678571Y-48157200D02*
X107583333Y-48061961D01*
X107583333Y-48061961D02*
X107535714Y-47966723D01*
X107535714Y-47966723D02*
X107488095Y-47776247D01*
X107488095Y-47776247D02*
X107488095Y-47633390D01*
X107488095Y-47633390D02*
X107535714Y-47442914D01*
X107535714Y-47442914D02*
X107583333Y-47347676D01*
X107583333Y-47347676D02*
X107678571Y-47252438D01*
X107678571Y-47252438D02*
X107821428Y-47204819D01*
X107821428Y-47204819D02*
X107916666Y-47204819D01*
X107916666Y-47204819D02*
X108059523Y-47252438D01*
X108059523Y-47252438D02*
X108107142Y-47300057D01*
X109059523Y-48204819D02*
X108488095Y-48204819D01*
X108773809Y-48204819D02*
X108773809Y-47204819D01*
X108773809Y-47204819D02*
X108678571Y-47347676D01*
X108678571Y-47347676D02*
X108583333Y-47442914D01*
X108583333Y-47442914D02*
X108488095Y-47490533D01*
X109392857Y-47204819D02*
X110011904Y-47204819D01*
X110011904Y-47204819D02*
X109678571Y-47585771D01*
X109678571Y-47585771D02*
X109821428Y-47585771D01*
X109821428Y-47585771D02*
X109916666Y-47633390D01*
X109916666Y-47633390D02*
X109964285Y-47681009D01*
X109964285Y-47681009D02*
X110011904Y-47776247D01*
X110011904Y-47776247D02*
X110011904Y-48014342D01*
X110011904Y-48014342D02*
X109964285Y-48109580D01*
X109964285Y-48109580D02*
X109916666Y-48157200D01*
X109916666Y-48157200D02*
X109821428Y-48204819D01*
X109821428Y-48204819D02*
X109535714Y-48204819D01*
X109535714Y-48204819D02*
X109440476Y-48157200D01*
X109440476Y-48157200D02*
X109392857Y-48109580D01*
X91469642Y-49609580D02*
X91422023Y-49657200D01*
X91422023Y-49657200D02*
X91279166Y-49704819D01*
X91279166Y-49704819D02*
X91183928Y-49704819D01*
X91183928Y-49704819D02*
X91041071Y-49657200D01*
X91041071Y-49657200D02*
X90945833Y-49561961D01*
X90945833Y-49561961D02*
X90898214Y-49466723D01*
X90898214Y-49466723D02*
X90850595Y-49276247D01*
X90850595Y-49276247D02*
X90850595Y-49133390D01*
X90850595Y-49133390D02*
X90898214Y-48942914D01*
X90898214Y-48942914D02*
X90945833Y-48847676D01*
X90945833Y-48847676D02*
X91041071Y-48752438D01*
X91041071Y-48752438D02*
X91183928Y-48704819D01*
X91183928Y-48704819D02*
X91279166Y-48704819D01*
X91279166Y-48704819D02*
X91422023Y-48752438D01*
X91422023Y-48752438D02*
X91469642Y-48800057D01*
X92422023Y-49704819D02*
X91850595Y-49704819D01*
X92136309Y-49704819D02*
X92136309Y-48704819D01*
X92136309Y-48704819D02*
X92041071Y-48847676D01*
X92041071Y-48847676D02*
X91945833Y-48942914D01*
X91945833Y-48942914D02*
X91850595Y-48990533D01*
X92802976Y-48800057D02*
X92850595Y-48752438D01*
X92850595Y-48752438D02*
X92945833Y-48704819D01*
X92945833Y-48704819D02*
X93183928Y-48704819D01*
X93183928Y-48704819D02*
X93279166Y-48752438D01*
X93279166Y-48752438D02*
X93326785Y-48800057D01*
X93326785Y-48800057D02*
X93374404Y-48895295D01*
X93374404Y-48895295D02*
X93374404Y-48990533D01*
X93374404Y-48990533D02*
X93326785Y-49133390D01*
X93326785Y-49133390D02*
X92755357Y-49704819D01*
X92755357Y-49704819D02*
X93374404Y-49704819D01*
X92445833Y-52109580D02*
X92398214Y-52157200D01*
X92398214Y-52157200D02*
X92255357Y-52204819D01*
X92255357Y-52204819D02*
X92160119Y-52204819D01*
X92160119Y-52204819D02*
X92017262Y-52157200D01*
X92017262Y-52157200D02*
X91922024Y-52061961D01*
X91922024Y-52061961D02*
X91874405Y-51966723D01*
X91874405Y-51966723D02*
X91826786Y-51776247D01*
X91826786Y-51776247D02*
X91826786Y-51633390D01*
X91826786Y-51633390D02*
X91874405Y-51442914D01*
X91874405Y-51442914D02*
X91922024Y-51347676D01*
X91922024Y-51347676D02*
X92017262Y-51252438D01*
X92017262Y-51252438D02*
X92160119Y-51204819D01*
X92160119Y-51204819D02*
X92255357Y-51204819D01*
X92255357Y-51204819D02*
X92398214Y-51252438D01*
X92398214Y-51252438D02*
X92445833Y-51300057D01*
X92922024Y-52204819D02*
X93112500Y-52204819D01*
X93112500Y-52204819D02*
X93207738Y-52157200D01*
X93207738Y-52157200D02*
X93255357Y-52109580D01*
X93255357Y-52109580D02*
X93350595Y-51966723D01*
X93350595Y-51966723D02*
X93398214Y-51776247D01*
X93398214Y-51776247D02*
X93398214Y-51395295D01*
X93398214Y-51395295D02*
X93350595Y-51300057D01*
X93350595Y-51300057D02*
X93302976Y-51252438D01*
X93302976Y-51252438D02*
X93207738Y-51204819D01*
X93207738Y-51204819D02*
X93017262Y-51204819D01*
X93017262Y-51204819D02*
X92922024Y-51252438D01*
X92922024Y-51252438D02*
X92874405Y-51300057D01*
X92874405Y-51300057D02*
X92826786Y-51395295D01*
X92826786Y-51395295D02*
X92826786Y-51633390D01*
X92826786Y-51633390D02*
X92874405Y-51728628D01*
X92874405Y-51728628D02*
X92922024Y-51776247D01*
X92922024Y-51776247D02*
X93017262Y-51823866D01*
X93017262Y-51823866D02*
X93207738Y-51823866D01*
X93207738Y-51823866D02*
X93302976Y-51776247D01*
X93302976Y-51776247D02*
X93350595Y-51728628D01*
X93350595Y-51728628D02*
X93398214Y-51633390D01*
X93609580Y-55416666D02*
X93657200Y-55464285D01*
X93657200Y-55464285D02*
X93704819Y-55607142D01*
X93704819Y-55607142D02*
X93704819Y-55702380D01*
X93704819Y-55702380D02*
X93657200Y-55845237D01*
X93657200Y-55845237D02*
X93561961Y-55940475D01*
X93561961Y-55940475D02*
X93466723Y-55988094D01*
X93466723Y-55988094D02*
X93276247Y-56035713D01*
X93276247Y-56035713D02*
X93133390Y-56035713D01*
X93133390Y-56035713D02*
X92942914Y-55988094D01*
X92942914Y-55988094D02*
X92847676Y-55940475D01*
X92847676Y-55940475D02*
X92752438Y-55845237D01*
X92752438Y-55845237D02*
X92704819Y-55702380D01*
X92704819Y-55702380D02*
X92704819Y-55607142D01*
X92704819Y-55607142D02*
X92752438Y-55464285D01*
X92752438Y-55464285D02*
X92800057Y-55416666D01*
X93038152Y-54559523D02*
X93704819Y-54559523D01*
X92657200Y-54797618D02*
X93371485Y-55035713D01*
X93371485Y-55035713D02*
X93371485Y-54416666D01*
X96609580Y-55416666D02*
X96657200Y-55464285D01*
X96657200Y-55464285D02*
X96704819Y-55607142D01*
X96704819Y-55607142D02*
X96704819Y-55702380D01*
X96704819Y-55702380D02*
X96657200Y-55845237D01*
X96657200Y-55845237D02*
X96561961Y-55940475D01*
X96561961Y-55940475D02*
X96466723Y-55988094D01*
X96466723Y-55988094D02*
X96276247Y-56035713D01*
X96276247Y-56035713D02*
X96133390Y-56035713D01*
X96133390Y-56035713D02*
X95942914Y-55988094D01*
X95942914Y-55988094D02*
X95847676Y-55940475D01*
X95847676Y-55940475D02*
X95752438Y-55845237D01*
X95752438Y-55845237D02*
X95704819Y-55702380D01*
X95704819Y-55702380D02*
X95704819Y-55607142D01*
X95704819Y-55607142D02*
X95752438Y-55464285D01*
X95752438Y-55464285D02*
X95800057Y-55416666D01*
X95704819Y-55083332D02*
X95704819Y-54464285D01*
X95704819Y-54464285D02*
X96085771Y-54797618D01*
X96085771Y-54797618D02*
X96085771Y-54654761D01*
X96085771Y-54654761D02*
X96133390Y-54559523D01*
X96133390Y-54559523D02*
X96181009Y-54511904D01*
X96181009Y-54511904D02*
X96276247Y-54464285D01*
X96276247Y-54464285D02*
X96514342Y-54464285D01*
X96514342Y-54464285D02*
X96609580Y-54511904D01*
X96609580Y-54511904D02*
X96657200Y-54559523D01*
X96657200Y-54559523D02*
X96704819Y-54654761D01*
X96704819Y-54654761D02*
X96704819Y-54940475D01*
X96704819Y-54940475D02*
X96657200Y-55035713D01*
X96657200Y-55035713D02*
X96609580Y-55083332D01*
X83988095Y-62704819D02*
X83988095Y-63514342D01*
X83988095Y-63514342D02*
X84035714Y-63609580D01*
X84035714Y-63609580D02*
X84083333Y-63657200D01*
X84083333Y-63657200D02*
X84178571Y-63704819D01*
X84178571Y-63704819D02*
X84369047Y-63704819D01*
X84369047Y-63704819D02*
X84464285Y-63657200D01*
X84464285Y-63657200D02*
X84511904Y-63609580D01*
X84511904Y-63609580D02*
X84559523Y-63514342D01*
X84559523Y-63514342D02*
X84559523Y-62704819D01*
X85559523Y-63704819D02*
X84988095Y-63704819D01*
X85273809Y-63704819D02*
X85273809Y-62704819D01*
X85273809Y-62704819D02*
X85178571Y-62847676D01*
X85178571Y-62847676D02*
X85083333Y-62942914D01*
X85083333Y-62942914D02*
X84988095Y-62990533D01*
X97488095Y-47704819D02*
X97488095Y-48514342D01*
X97488095Y-48514342D02*
X97535714Y-48609580D01*
X97535714Y-48609580D02*
X97583333Y-48657200D01*
X97583333Y-48657200D02*
X97678571Y-48704819D01*
X97678571Y-48704819D02*
X97869047Y-48704819D01*
X97869047Y-48704819D02*
X97964285Y-48657200D01*
X97964285Y-48657200D02*
X98011904Y-48609580D01*
X98011904Y-48609580D02*
X98059523Y-48514342D01*
X98059523Y-48514342D02*
X98059523Y-47704819D01*
X98488095Y-47800057D02*
X98535714Y-47752438D01*
X98535714Y-47752438D02*
X98630952Y-47704819D01*
X98630952Y-47704819D02*
X98869047Y-47704819D01*
X98869047Y-47704819D02*
X98964285Y-47752438D01*
X98964285Y-47752438D02*
X99011904Y-47800057D01*
X99011904Y-47800057D02*
X99059523Y-47895295D01*
X99059523Y-47895295D02*
X99059523Y-47990533D01*
X99059523Y-47990533D02*
X99011904Y-48133390D01*
X99011904Y-48133390D02*
X98440476Y-48704819D01*
X98440476Y-48704819D02*
X99059523Y-48704819D01*
X89713628Y-56476190D02*
X90189819Y-56476190D01*
X89189819Y-56809523D02*
X89713628Y-56476190D01*
X89713628Y-56476190D02*
X89189819Y-56142857D01*
X90189819Y-55285714D02*
X90189819Y-55857142D01*
X90189819Y-55571428D02*
X89189819Y-55571428D01*
X89189819Y-55571428D02*
X89332676Y-55666666D01*
X89332676Y-55666666D02*
X89427914Y-55761904D01*
X89427914Y-55761904D02*
X89475533Y-55857142D01*
X106204819Y-59916666D02*
X105728628Y-60249999D01*
X106204819Y-60488094D02*
X105204819Y-60488094D01*
X105204819Y-60488094D02*
X105204819Y-60107142D01*
X105204819Y-60107142D02*
X105252438Y-60011904D01*
X105252438Y-60011904D02*
X105300057Y-59964285D01*
X105300057Y-59964285D02*
X105395295Y-59916666D01*
X105395295Y-59916666D02*
X105538152Y-59916666D01*
X105538152Y-59916666D02*
X105633390Y-59964285D01*
X105633390Y-59964285D02*
X105681009Y-60011904D01*
X105681009Y-60011904D02*
X105728628Y-60107142D01*
X105728628Y-60107142D02*
X105728628Y-60488094D01*
X106204819Y-58964285D02*
X106204819Y-59535713D01*
X106204819Y-59249999D02*
X105204819Y-59249999D01*
X105204819Y-59249999D02*
X105347676Y-59345237D01*
X105347676Y-59345237D02*
X105442914Y-59440475D01*
X105442914Y-59440475D02*
X105490533Y-59535713D01*
X117181009Y-51583333D02*
X117181009Y-51916666D01*
X117704819Y-51916666D02*
X116704819Y-51916666D01*
X116704819Y-51916666D02*
X116704819Y-51440476D01*
X117181009Y-50726190D02*
X117228628Y-50583333D01*
X117228628Y-50583333D02*
X117276247Y-50535714D01*
X117276247Y-50535714D02*
X117371485Y-50488095D01*
X117371485Y-50488095D02*
X117514342Y-50488095D01*
X117514342Y-50488095D02*
X117609580Y-50535714D01*
X117609580Y-50535714D02*
X117657200Y-50583333D01*
X117657200Y-50583333D02*
X117704819Y-50678571D01*
X117704819Y-50678571D02*
X117704819Y-51059523D01*
X117704819Y-51059523D02*
X116704819Y-51059523D01*
X116704819Y-51059523D02*
X116704819Y-50726190D01*
X116704819Y-50726190D02*
X116752438Y-50630952D01*
X116752438Y-50630952D02*
X116800057Y-50583333D01*
X116800057Y-50583333D02*
X116895295Y-50535714D01*
X116895295Y-50535714D02*
X116990533Y-50535714D01*
X116990533Y-50535714D02*
X117085771Y-50583333D01*
X117085771Y-50583333D02*
X117133390Y-50630952D01*
X117133390Y-50630952D02*
X117181009Y-50726190D01*
X117181009Y-50726190D02*
X117181009Y-51059523D01*
X117704819Y-49535714D02*
X117704819Y-50107142D01*
X117704819Y-49821428D02*
X116704819Y-49821428D01*
X116704819Y-49821428D02*
X116847676Y-49916666D01*
X116847676Y-49916666D02*
X116942914Y-50011904D01*
X116942914Y-50011904D02*
X116990533Y-50107142D01*
X92607142Y-60109580D02*
X92559523Y-60157200D01*
X92559523Y-60157200D02*
X92416666Y-60204819D01*
X92416666Y-60204819D02*
X92321428Y-60204819D01*
X92321428Y-60204819D02*
X92178571Y-60157200D01*
X92178571Y-60157200D02*
X92083333Y-60061961D01*
X92083333Y-60061961D02*
X92035714Y-59966723D01*
X92035714Y-59966723D02*
X91988095Y-59776247D01*
X91988095Y-59776247D02*
X91988095Y-59633390D01*
X91988095Y-59633390D02*
X92035714Y-59442914D01*
X92035714Y-59442914D02*
X92083333Y-59347676D01*
X92083333Y-59347676D02*
X92178571Y-59252438D01*
X92178571Y-59252438D02*
X92321428Y-59204819D01*
X92321428Y-59204819D02*
X92416666Y-59204819D01*
X92416666Y-59204819D02*
X92559523Y-59252438D01*
X92559523Y-59252438D02*
X92607142Y-59300057D01*
X93559523Y-60204819D02*
X92988095Y-60204819D01*
X93273809Y-60204819D02*
X93273809Y-59204819D01*
X93273809Y-59204819D02*
X93178571Y-59347676D01*
X93178571Y-59347676D02*
X93083333Y-59442914D01*
X93083333Y-59442914D02*
X92988095Y-59490533D01*
X94416666Y-59204819D02*
X94226190Y-59204819D01*
X94226190Y-59204819D02*
X94130952Y-59252438D01*
X94130952Y-59252438D02*
X94083333Y-59300057D01*
X94083333Y-59300057D02*
X93988095Y-59442914D01*
X93988095Y-59442914D02*
X93940476Y-59633390D01*
X93940476Y-59633390D02*
X93940476Y-60014342D01*
X93940476Y-60014342D02*
X93988095Y-60109580D01*
X93988095Y-60109580D02*
X94035714Y-60157200D01*
X94035714Y-60157200D02*
X94130952Y-60204819D01*
X94130952Y-60204819D02*
X94321428Y-60204819D01*
X94321428Y-60204819D02*
X94416666Y-60157200D01*
X94416666Y-60157200D02*
X94464285Y-60109580D01*
X94464285Y-60109580D02*
X94511904Y-60014342D01*
X94511904Y-60014342D02*
X94511904Y-59776247D01*
X94511904Y-59776247D02*
X94464285Y-59681009D01*
X94464285Y-59681009D02*
X94416666Y-59633390D01*
X94416666Y-59633390D02*
X94321428Y-59585771D01*
X94321428Y-59585771D02*
X94130952Y-59585771D01*
X94130952Y-59585771D02*
X94035714Y-59633390D01*
X94035714Y-59633390D02*
X93988095Y-59681009D01*
X93988095Y-59681009D02*
X93940476Y-59776247D01*
X92607142Y-58109580D02*
X92559523Y-58157200D01*
X92559523Y-58157200D02*
X92416666Y-58204819D01*
X92416666Y-58204819D02*
X92321428Y-58204819D01*
X92321428Y-58204819D02*
X92178571Y-58157200D01*
X92178571Y-58157200D02*
X92083333Y-58061961D01*
X92083333Y-58061961D02*
X92035714Y-57966723D01*
X92035714Y-57966723D02*
X91988095Y-57776247D01*
X91988095Y-57776247D02*
X91988095Y-57633390D01*
X91988095Y-57633390D02*
X92035714Y-57442914D01*
X92035714Y-57442914D02*
X92083333Y-57347676D01*
X92083333Y-57347676D02*
X92178571Y-57252438D01*
X92178571Y-57252438D02*
X92321428Y-57204819D01*
X92321428Y-57204819D02*
X92416666Y-57204819D01*
X92416666Y-57204819D02*
X92559523Y-57252438D01*
X92559523Y-57252438D02*
X92607142Y-57300057D01*
X93559523Y-58204819D02*
X92988095Y-58204819D01*
X93273809Y-58204819D02*
X93273809Y-57204819D01*
X93273809Y-57204819D02*
X93178571Y-57347676D01*
X93178571Y-57347676D02*
X93083333Y-57442914D01*
X93083333Y-57442914D02*
X92988095Y-57490533D01*
X94464285Y-57204819D02*
X93988095Y-57204819D01*
X93988095Y-57204819D02*
X93940476Y-57681009D01*
X93940476Y-57681009D02*
X93988095Y-57633390D01*
X93988095Y-57633390D02*
X94083333Y-57585771D01*
X94083333Y-57585771D02*
X94321428Y-57585771D01*
X94321428Y-57585771D02*
X94416666Y-57633390D01*
X94416666Y-57633390D02*
X94464285Y-57681009D01*
X94464285Y-57681009D02*
X94511904Y-57776247D01*
X94511904Y-57776247D02*
X94511904Y-58014342D01*
X94511904Y-58014342D02*
X94464285Y-58109580D01*
X94464285Y-58109580D02*
X94416666Y-58157200D01*
X94416666Y-58157200D02*
X94321428Y-58204819D01*
X94321428Y-58204819D02*
X94083333Y-58204819D01*
X94083333Y-58204819D02*
X93988095Y-58157200D01*
X93988095Y-58157200D02*
X93940476Y-58109580D01*
X103607142Y-46109580D02*
X103559523Y-46157200D01*
X103559523Y-46157200D02*
X103416666Y-46204819D01*
X103416666Y-46204819D02*
X103321428Y-46204819D01*
X103321428Y-46204819D02*
X103178571Y-46157200D01*
X103178571Y-46157200D02*
X103083333Y-46061961D01*
X103083333Y-46061961D02*
X103035714Y-45966723D01*
X103035714Y-45966723D02*
X102988095Y-45776247D01*
X102988095Y-45776247D02*
X102988095Y-45633390D01*
X102988095Y-45633390D02*
X103035714Y-45442914D01*
X103035714Y-45442914D02*
X103083333Y-45347676D01*
X103083333Y-45347676D02*
X103178571Y-45252438D01*
X103178571Y-45252438D02*
X103321428Y-45204819D01*
X103321428Y-45204819D02*
X103416666Y-45204819D01*
X103416666Y-45204819D02*
X103559523Y-45252438D01*
X103559523Y-45252438D02*
X103607142Y-45300057D01*
X104559523Y-46204819D02*
X103988095Y-46204819D01*
X104273809Y-46204819D02*
X104273809Y-45204819D01*
X104273809Y-45204819D02*
X104178571Y-45347676D01*
X104178571Y-45347676D02*
X104083333Y-45442914D01*
X104083333Y-45442914D02*
X103988095Y-45490533D01*
X105511904Y-46204819D02*
X104940476Y-46204819D01*
X105226190Y-46204819D02*
X105226190Y-45204819D01*
X105226190Y-45204819D02*
X105130952Y-45347676D01*
X105130952Y-45347676D02*
X105035714Y-45442914D01*
X105035714Y-45442914D02*
X104940476Y-45490533D01*
X98607142Y-62109580D02*
X98559523Y-62157200D01*
X98559523Y-62157200D02*
X98416666Y-62204819D01*
X98416666Y-62204819D02*
X98321428Y-62204819D01*
X98321428Y-62204819D02*
X98178571Y-62157200D01*
X98178571Y-62157200D02*
X98083333Y-62061961D01*
X98083333Y-62061961D02*
X98035714Y-61966723D01*
X98035714Y-61966723D02*
X97988095Y-61776247D01*
X97988095Y-61776247D02*
X97988095Y-61633390D01*
X97988095Y-61633390D02*
X98035714Y-61442914D01*
X98035714Y-61442914D02*
X98083333Y-61347676D01*
X98083333Y-61347676D02*
X98178571Y-61252438D01*
X98178571Y-61252438D02*
X98321428Y-61204819D01*
X98321428Y-61204819D02*
X98416666Y-61204819D01*
X98416666Y-61204819D02*
X98559523Y-61252438D01*
X98559523Y-61252438D02*
X98607142Y-61300057D01*
X99559523Y-62204819D02*
X98988095Y-62204819D01*
X99273809Y-62204819D02*
X99273809Y-61204819D01*
X99273809Y-61204819D02*
X99178571Y-61347676D01*
X99178571Y-61347676D02*
X99083333Y-61442914D01*
X99083333Y-61442914D02*
X98988095Y-61490533D01*
X100178571Y-61204819D02*
X100273809Y-61204819D01*
X100273809Y-61204819D02*
X100369047Y-61252438D01*
X100369047Y-61252438D02*
X100416666Y-61300057D01*
X100416666Y-61300057D02*
X100464285Y-61395295D01*
X100464285Y-61395295D02*
X100511904Y-61585771D01*
X100511904Y-61585771D02*
X100511904Y-61823866D01*
X100511904Y-61823866D02*
X100464285Y-62014342D01*
X100464285Y-62014342D02*
X100416666Y-62109580D01*
X100416666Y-62109580D02*
X100369047Y-62157200D01*
X100369047Y-62157200D02*
X100273809Y-62204819D01*
X100273809Y-62204819D02*
X100178571Y-62204819D01*
X100178571Y-62204819D02*
X100083333Y-62157200D01*
X100083333Y-62157200D02*
X100035714Y-62109580D01*
X100035714Y-62109580D02*
X99988095Y-62014342D01*
X99988095Y-62014342D02*
X99940476Y-61823866D01*
X99940476Y-61823866D02*
X99940476Y-61585771D01*
X99940476Y-61585771D02*
X99988095Y-61395295D01*
X99988095Y-61395295D02*
X100035714Y-61300057D01*
X100035714Y-61300057D02*
X100083333Y-61252438D01*
X100083333Y-61252438D02*
X100178571Y-61204819D01*
X89583333Y-60109580D02*
X89535714Y-60157200D01*
X89535714Y-60157200D02*
X89392857Y-60204819D01*
X89392857Y-60204819D02*
X89297619Y-60204819D01*
X89297619Y-60204819D02*
X89154762Y-60157200D01*
X89154762Y-60157200D02*
X89059524Y-60061961D01*
X89059524Y-60061961D02*
X89011905Y-59966723D01*
X89011905Y-59966723D02*
X88964286Y-59776247D01*
X88964286Y-59776247D02*
X88964286Y-59633390D01*
X88964286Y-59633390D02*
X89011905Y-59442914D01*
X89011905Y-59442914D02*
X89059524Y-59347676D01*
X89059524Y-59347676D02*
X89154762Y-59252438D01*
X89154762Y-59252438D02*
X89297619Y-59204819D01*
X89297619Y-59204819D02*
X89392857Y-59204819D01*
X89392857Y-59204819D02*
X89535714Y-59252438D01*
X89535714Y-59252438D02*
X89583333Y-59300057D01*
X90154762Y-59633390D02*
X90059524Y-59585771D01*
X90059524Y-59585771D02*
X90011905Y-59538152D01*
X90011905Y-59538152D02*
X89964286Y-59442914D01*
X89964286Y-59442914D02*
X89964286Y-59395295D01*
X89964286Y-59395295D02*
X90011905Y-59300057D01*
X90011905Y-59300057D02*
X90059524Y-59252438D01*
X90059524Y-59252438D02*
X90154762Y-59204819D01*
X90154762Y-59204819D02*
X90345238Y-59204819D01*
X90345238Y-59204819D02*
X90440476Y-59252438D01*
X90440476Y-59252438D02*
X90488095Y-59300057D01*
X90488095Y-59300057D02*
X90535714Y-59395295D01*
X90535714Y-59395295D02*
X90535714Y-59442914D01*
X90535714Y-59442914D02*
X90488095Y-59538152D01*
X90488095Y-59538152D02*
X90440476Y-59585771D01*
X90440476Y-59585771D02*
X90345238Y-59633390D01*
X90345238Y-59633390D02*
X90154762Y-59633390D01*
X90154762Y-59633390D02*
X90059524Y-59681009D01*
X90059524Y-59681009D02*
X90011905Y-59728628D01*
X90011905Y-59728628D02*
X89964286Y-59823866D01*
X89964286Y-59823866D02*
X89964286Y-60014342D01*
X89964286Y-60014342D02*
X90011905Y-60109580D01*
X90011905Y-60109580D02*
X90059524Y-60157200D01*
X90059524Y-60157200D02*
X90154762Y-60204819D01*
X90154762Y-60204819D02*
X90345238Y-60204819D01*
X90345238Y-60204819D02*
X90440476Y-60157200D01*
X90440476Y-60157200D02*
X90488095Y-60109580D01*
X90488095Y-60109580D02*
X90535714Y-60014342D01*
X90535714Y-60014342D02*
X90535714Y-59823866D01*
X90535714Y-59823866D02*
X90488095Y-59728628D01*
X90488095Y-59728628D02*
X90440476Y-59681009D01*
X90440476Y-59681009D02*
X90345238Y-59633390D01*
X89583333Y-54109580D02*
X89535714Y-54157200D01*
X89535714Y-54157200D02*
X89392857Y-54204819D01*
X89392857Y-54204819D02*
X89297619Y-54204819D01*
X89297619Y-54204819D02*
X89154762Y-54157200D01*
X89154762Y-54157200D02*
X89059524Y-54061961D01*
X89059524Y-54061961D02*
X89011905Y-53966723D01*
X89011905Y-53966723D02*
X88964286Y-53776247D01*
X88964286Y-53776247D02*
X88964286Y-53633390D01*
X88964286Y-53633390D02*
X89011905Y-53442914D01*
X89011905Y-53442914D02*
X89059524Y-53347676D01*
X89059524Y-53347676D02*
X89154762Y-53252438D01*
X89154762Y-53252438D02*
X89297619Y-53204819D01*
X89297619Y-53204819D02*
X89392857Y-53204819D01*
X89392857Y-53204819D02*
X89535714Y-53252438D01*
X89535714Y-53252438D02*
X89583333Y-53300057D01*
X89916667Y-53204819D02*
X90583333Y-53204819D01*
X90583333Y-53204819D02*
X90154762Y-54204819D01*
X112083333Y-59609580D02*
X112035714Y-59657200D01*
X112035714Y-59657200D02*
X111892857Y-59704819D01*
X111892857Y-59704819D02*
X111797619Y-59704819D01*
X111797619Y-59704819D02*
X111654762Y-59657200D01*
X111654762Y-59657200D02*
X111559524Y-59561961D01*
X111559524Y-59561961D02*
X111511905Y-59466723D01*
X111511905Y-59466723D02*
X111464286Y-59276247D01*
X111464286Y-59276247D02*
X111464286Y-59133390D01*
X111464286Y-59133390D02*
X111511905Y-58942914D01*
X111511905Y-58942914D02*
X111559524Y-58847676D01*
X111559524Y-58847676D02*
X111654762Y-58752438D01*
X111654762Y-58752438D02*
X111797619Y-58704819D01*
X111797619Y-58704819D02*
X111892857Y-58704819D01*
X111892857Y-58704819D02*
X112035714Y-58752438D01*
X112035714Y-58752438D02*
X112083333Y-58800057D01*
X112940476Y-58704819D02*
X112750000Y-58704819D01*
X112750000Y-58704819D02*
X112654762Y-58752438D01*
X112654762Y-58752438D02*
X112607143Y-58800057D01*
X112607143Y-58800057D02*
X112511905Y-58942914D01*
X112511905Y-58942914D02*
X112464286Y-59133390D01*
X112464286Y-59133390D02*
X112464286Y-59514342D01*
X112464286Y-59514342D02*
X112511905Y-59609580D01*
X112511905Y-59609580D02*
X112559524Y-59657200D01*
X112559524Y-59657200D02*
X112654762Y-59704819D01*
X112654762Y-59704819D02*
X112845238Y-59704819D01*
X112845238Y-59704819D02*
X112940476Y-59657200D01*
X112940476Y-59657200D02*
X112988095Y-59609580D01*
X112988095Y-59609580D02*
X113035714Y-59514342D01*
X113035714Y-59514342D02*
X113035714Y-59276247D01*
X113035714Y-59276247D02*
X112988095Y-59181009D01*
X112988095Y-59181009D02*
X112940476Y-59133390D01*
X112940476Y-59133390D02*
X112845238Y-59085771D01*
X112845238Y-59085771D02*
X112654762Y-59085771D01*
X112654762Y-59085771D02*
X112559524Y-59133390D01*
X112559524Y-59133390D02*
X112511905Y-59181009D01*
X112511905Y-59181009D02*
X112464286Y-59276247D01*
X108583333Y-59609580D02*
X108535714Y-59657200D01*
X108535714Y-59657200D02*
X108392857Y-59704819D01*
X108392857Y-59704819D02*
X108297619Y-59704819D01*
X108297619Y-59704819D02*
X108154762Y-59657200D01*
X108154762Y-59657200D02*
X108059524Y-59561961D01*
X108059524Y-59561961D02*
X108011905Y-59466723D01*
X108011905Y-59466723D02*
X107964286Y-59276247D01*
X107964286Y-59276247D02*
X107964286Y-59133390D01*
X107964286Y-59133390D02*
X108011905Y-58942914D01*
X108011905Y-58942914D02*
X108059524Y-58847676D01*
X108059524Y-58847676D02*
X108154762Y-58752438D01*
X108154762Y-58752438D02*
X108297619Y-58704819D01*
X108297619Y-58704819D02*
X108392857Y-58704819D01*
X108392857Y-58704819D02*
X108535714Y-58752438D01*
X108535714Y-58752438D02*
X108583333Y-58800057D01*
X109488095Y-58704819D02*
X109011905Y-58704819D01*
X109011905Y-58704819D02*
X108964286Y-59181009D01*
X108964286Y-59181009D02*
X109011905Y-59133390D01*
X109011905Y-59133390D02*
X109107143Y-59085771D01*
X109107143Y-59085771D02*
X109345238Y-59085771D01*
X109345238Y-59085771D02*
X109440476Y-59133390D01*
X109440476Y-59133390D02*
X109488095Y-59181009D01*
X109488095Y-59181009D02*
X109535714Y-59276247D01*
X109535714Y-59276247D02*
X109535714Y-59514342D01*
X109535714Y-59514342D02*
X109488095Y-59609580D01*
X109488095Y-59609580D02*
X109440476Y-59657200D01*
X109440476Y-59657200D02*
X109345238Y-59704819D01*
X109345238Y-59704819D02*
X109107143Y-59704819D01*
X109107143Y-59704819D02*
X109011905Y-59657200D01*
X109011905Y-59657200D02*
X108964286Y-59609580D01*
X108583333Y-51609580D02*
X108535714Y-51657200D01*
X108535714Y-51657200D02*
X108392857Y-51704819D01*
X108392857Y-51704819D02*
X108297619Y-51704819D01*
X108297619Y-51704819D02*
X108154762Y-51657200D01*
X108154762Y-51657200D02*
X108059524Y-51561961D01*
X108059524Y-51561961D02*
X108011905Y-51466723D01*
X108011905Y-51466723D02*
X107964286Y-51276247D01*
X107964286Y-51276247D02*
X107964286Y-51133390D01*
X107964286Y-51133390D02*
X108011905Y-50942914D01*
X108011905Y-50942914D02*
X108059524Y-50847676D01*
X108059524Y-50847676D02*
X108154762Y-50752438D01*
X108154762Y-50752438D02*
X108297619Y-50704819D01*
X108297619Y-50704819D02*
X108392857Y-50704819D01*
X108392857Y-50704819D02*
X108535714Y-50752438D01*
X108535714Y-50752438D02*
X108583333Y-50800057D01*
X108964286Y-50800057D02*
X109011905Y-50752438D01*
X109011905Y-50752438D02*
X109107143Y-50704819D01*
X109107143Y-50704819D02*
X109345238Y-50704819D01*
X109345238Y-50704819D02*
X109440476Y-50752438D01*
X109440476Y-50752438D02*
X109488095Y-50800057D01*
X109488095Y-50800057D02*
X109535714Y-50895295D01*
X109535714Y-50895295D02*
X109535714Y-50990533D01*
X109535714Y-50990533D02*
X109488095Y-51133390D01*
X109488095Y-51133390D02*
X108916667Y-51704819D01*
X108916667Y-51704819D02*
X109535714Y-51704819D01*
X112083333Y-51609580D02*
X112035714Y-51657200D01*
X112035714Y-51657200D02*
X111892857Y-51704819D01*
X111892857Y-51704819D02*
X111797619Y-51704819D01*
X111797619Y-51704819D02*
X111654762Y-51657200D01*
X111654762Y-51657200D02*
X111559524Y-51561961D01*
X111559524Y-51561961D02*
X111511905Y-51466723D01*
X111511905Y-51466723D02*
X111464286Y-51276247D01*
X111464286Y-51276247D02*
X111464286Y-51133390D01*
X111464286Y-51133390D02*
X111511905Y-50942914D01*
X111511905Y-50942914D02*
X111559524Y-50847676D01*
X111559524Y-50847676D02*
X111654762Y-50752438D01*
X111654762Y-50752438D02*
X111797619Y-50704819D01*
X111797619Y-50704819D02*
X111892857Y-50704819D01*
X111892857Y-50704819D02*
X112035714Y-50752438D01*
X112035714Y-50752438D02*
X112083333Y-50800057D01*
X113035714Y-51704819D02*
X112464286Y-51704819D01*
X112750000Y-51704819D02*
X112750000Y-50704819D01*
X112750000Y-50704819D02*
X112654762Y-50847676D01*
X112654762Y-50847676D02*
X112559524Y-50942914D01*
X112559524Y-50942914D02*
X112464286Y-50990533D01*
D12*
%TO.C,C13*%
X109396267Y-48740000D02*
X109103733Y-48740000D01*
X109396267Y-49760000D02*
X109103733Y-49760000D01*
%TO.C,C12*%
X95103733Y-48740000D02*
X95396267Y-48740000D01*
X95103733Y-49760000D02*
X95396267Y-49760000D01*
%TO.C,C9*%
X95103733Y-52260000D02*
X95396267Y-52260000D01*
X95103733Y-51240000D02*
X95396267Y-51240000D01*
%TO.C,C4*%
X92260000Y-54466233D02*
X92260000Y-54758767D01*
X91240000Y-54466233D02*
X91240000Y-54758767D01*
%TO.C,C3*%
X95260000Y-54466233D02*
X95260000Y-54758767D01*
X94240000Y-54466233D02*
X94240000Y-54758767D01*
D13*
%TO.C,U1*%
X87023000Y-82870000D02*
G75*
G02*
X86823000Y-82870000I-100000J0D01*
G01*
X86823000Y-82870000D02*
G75*
G02*
X87023000Y-82870000I100000J0D01*
G01*
D14*
X105084000Y-64480000D02*
X105084000Y-82260000D01*
X84129000Y-82260000D02*
X84129000Y-64480000D01*
X105084000Y-82260000D02*
X84129000Y-82260000D01*
X84129000Y-64480000D02*
X105084000Y-64480000D01*
D13*
%TO.C,U2*%
X98365000Y-50000000D02*
G75*
G02*
X98165000Y-50000000I-100000J0D01*
G01*
X98165000Y-50000000D02*
G75*
G02*
X98365000Y-50000000I100000J0D01*
G01*
D14*
X106250000Y-56250000D02*
X105950000Y-56250000D01*
X106250000Y-49250000D02*
X105950000Y-49250000D01*
X99250000Y-56250000D02*
X99550000Y-56250000D01*
X99250000Y-49250000D02*
X99550000Y-49250000D01*
X106250000Y-56250000D02*
X106250000Y-55950000D01*
X106250000Y-49250000D02*
X106250000Y-49550000D01*
X99250000Y-56250000D02*
X99250000Y-55950000D01*
X99250000Y-49250000D02*
X99250000Y-49550000D01*
%TO.C,Y1*%
X87030000Y-55625000D02*
X86670000Y-55625000D01*
X87030000Y-58125000D02*
X86670000Y-58125000D01*
D13*
X88100000Y-54725000D02*
G75*
G02*
X87900000Y-54725000I-100000J0D01*
G01*
X87900000Y-54725000D02*
G75*
G02*
X88100000Y-54725000I100000J0D01*
G01*
D12*
%TO.C,R1*%
X103727500Y-59417224D02*
X103727500Y-58907776D01*
X104772500Y-59417224D02*
X104772500Y-58907776D01*
%TO.C,FB1*%
X115907776Y-52227500D02*
X116417224Y-52227500D01*
X115907776Y-53272500D02*
X116417224Y-53272500D01*
%TO.C,C16*%
X96241233Y-59240000D02*
X96533767Y-59240000D01*
X96241233Y-60260000D02*
X96533767Y-60260000D01*
%TO.C,C15*%
X96241233Y-57240000D02*
X96533767Y-57240000D01*
X96241233Y-58260000D02*
X96533767Y-58260000D01*
%TO.C,C11*%
X102760000Y-46241233D02*
X102760000Y-46533767D01*
X101740000Y-46241233D02*
X101740000Y-46533767D01*
%TO.C,C10*%
X99740000Y-59258767D02*
X99740000Y-58966233D01*
X100760000Y-59258767D02*
X100760000Y-58966233D01*
%TO.C,C8*%
X87103733Y-59240000D02*
X87396267Y-59240000D01*
X87103733Y-60260000D02*
X87396267Y-60260000D01*
%TO.C,C7*%
X87396267Y-54260000D02*
X87103733Y-54260000D01*
X87396267Y-53240000D02*
X87103733Y-53240000D01*
%TO.C,C6*%
X112760000Y-56966233D02*
X112760000Y-57258767D01*
X111740000Y-56966233D02*
X111740000Y-57258767D01*
%TO.C,C5*%
X109260000Y-56966233D02*
X109260000Y-57258767D01*
X108240000Y-56966233D02*
X108240000Y-57258767D01*
%TO.C,C2*%
X109260000Y-53466233D02*
X109260000Y-53758767D01*
X108240000Y-53466233D02*
X108240000Y-53758767D01*
%TO.C,C1*%
X112760000Y-53466233D02*
X112760000Y-53758767D01*
X111740000Y-53466233D02*
X111740000Y-53758767D01*
%TD*%
%LPC*%
D15*
%TO.C,J1*%
X111750000Y-75250000D03*
%TD*%
%TO.C,J2*%
X111750000Y-80250000D03*
%TD*%
%TO.C,J3*%
X111750000Y-65250000D03*
%TD*%
%TO.C,J4*%
X111750000Y-70250000D03*
%TD*%
D16*
%TO.C,C13*%
X108387500Y-49250000D03*
X110112500Y-49250000D03*
%TD*%
D17*
%TO.C,C12*%
X94387500Y-49250000D03*
X96112500Y-49250000D03*
%TD*%
%TO.C,C9*%
X96112500Y-51750000D03*
X94387500Y-51750000D03*
%TD*%
D18*
%TO.C,C4*%
X91750000Y-53750000D03*
X91750000Y-55475000D03*
%TD*%
%TO.C,C3*%
X94750000Y-53750000D03*
X94750000Y-55475000D03*
%TD*%
D19*
%TO.C,U1*%
X87050000Y-80990000D03*
D20*
X89590000Y-80990000D03*
X92130000Y-80990000D03*
X102290000Y-80990000D03*
X99750000Y-80990000D03*
X97210000Y-80990000D03*
X94670000Y-80990000D03*
X87050000Y-65750000D03*
X89590000Y-65750000D03*
X92130000Y-65750000D03*
X102290000Y-65750000D03*
X99750000Y-65750000D03*
X97210000Y-65750000D03*
X94670000Y-65750000D03*
%TD*%
D21*
%TO.C,U2*%
X100000000Y-56195000D03*
X100500000Y-56195000D03*
X101000000Y-56195000D03*
X101500000Y-56195000D03*
X102000000Y-56195000D03*
X102500000Y-56195000D03*
X103000000Y-56195000D03*
X103500000Y-56195000D03*
X104000000Y-56195000D03*
X104500000Y-56195000D03*
X105000000Y-56195000D03*
X105500000Y-56195000D03*
X105500000Y-49305000D03*
X105000000Y-49305000D03*
X104500000Y-49305000D03*
X104000000Y-49305000D03*
X103500000Y-49305000D03*
X103000000Y-49305000D03*
X102500000Y-49305000D03*
X102000000Y-49305000D03*
X101500000Y-49305000D03*
X101000000Y-49305000D03*
X100500000Y-49305000D03*
X100000000Y-49305000D03*
D22*
X99305000Y-50000000D03*
X99305000Y-50500000D03*
X99305000Y-51000000D03*
X99305000Y-51500000D03*
X99305000Y-52000000D03*
X99305000Y-52500000D03*
X99305000Y-53000000D03*
X99305000Y-53500000D03*
X99305000Y-54000000D03*
X99305000Y-54500000D03*
X99305000Y-55000000D03*
X99305000Y-55500000D03*
X106195000Y-55500000D03*
X106195000Y-55000000D03*
X106195000Y-54500000D03*
X106195000Y-54000000D03*
X106195000Y-53500000D03*
X106195000Y-53000000D03*
X106195000Y-52500000D03*
X106195000Y-52000000D03*
X106195000Y-51500000D03*
X106195000Y-51000000D03*
X106195000Y-50500000D03*
X106195000Y-50000000D03*
D23*
X102750000Y-52750000D03*
%TD*%
D24*
%TO.C,Y1*%
X88000000Y-56000000D03*
X85700000Y-56000000D03*
X85700000Y-57750000D03*
X88000000Y-57750000D03*
%TD*%
D25*
%TO.C,R1*%
X104250000Y-60075000D03*
X104250000Y-58250000D03*
%TD*%
D26*
%TO.C,FB1*%
X115250000Y-52750000D03*
X117075000Y-52750000D03*
%TD*%
D17*
%TO.C,C16*%
X95525000Y-59750000D03*
X97250000Y-59750000D03*
%TD*%
%TO.C,C15*%
X95525000Y-57750000D03*
X97250000Y-57750000D03*
%TD*%
D18*
%TO.C,C11*%
X102250000Y-45525000D03*
X102250000Y-47250000D03*
%TD*%
D27*
%TO.C,C10*%
X100250000Y-59975000D03*
X100250000Y-58250000D03*
%TD*%
D17*
%TO.C,C8*%
X86387500Y-59750000D03*
X88112500Y-59750000D03*
%TD*%
D16*
%TO.C,C7*%
X88112500Y-53750000D03*
X86387500Y-53750000D03*
%TD*%
D18*
%TO.C,C6*%
X112250000Y-56250000D03*
X112250000Y-57975000D03*
%TD*%
%TO.C,C5*%
X108750000Y-56250000D03*
X108750000Y-57975000D03*
%TD*%
%TO.C,C2*%
X108750000Y-52750000D03*
X108750000Y-54475000D03*
%TD*%
%TO.C,C1*%
X112250000Y-52750000D03*
X112250000Y-54475000D03*
%TD*%
%LPD*%
M02*
